<svg width="370" height="194" viewBox="0 0 370 194" fill="none" xmlns="http://www.w3.org/2000/svg">
<path d="M234.875 56.1533C234.875 53.2031 232.526 50.8545 229.576 50.8545H176.245V42.6455C176.245 40.4898 176.858 39.1791 177.629 38.4082C178.4 37.6373 179.711 37.0234 181.868 37.0234H221.097C229.892 37.0234 236.857 34.6427 241.71 29.8311C246.544 25.0389 248.859 18.2554 249.24 10.3125L249.244 10.2412V10.1689C249.244 7.21888 246.895 4.87012 243.945 4.87012H170.228C159.175 4.87012 150.5 7.48218 144.643 13.5674C138.811 19.6271 136.333 28.5544 136.333 39.9102L136.189 116.356V116.362C136.189 118.986 136.998 121.443 138.827 123.243C140.65 125.037 143.132 125.829 145.799 125.829H166.204L166.718 125.82C169.28 125.73 171.648 124.958 173.432 123.307C175.365 121.518 176.245 119.038 176.245 116.362V85.8994C176.245 83.7434 176.858 82.4326 177.629 81.6611C178.401 80.8898 179.711 80.2754 181.868 80.2754H208.452C216.7 80.2754 223.22 78.1703 227.778 73.8486C232.334 69.528 234.485 63.413 234.87 56.3154L234.875 56.2344V56.1533Z" fill="white" stroke="#273A78" stroke-width="6"/>
<path d="M113.807 185.45V174.961H122.105L130.553 184.445L131.447 185.45H149.69L145.234 180.453L138.835 173.277C140.255 172.55 141.508 171.583 142.543 170.354C144.64 167.863 145.565 164.635 145.565 161.04C145.565 156.969 144.313 153.415 141.459 150.94C138.681 148.531 134.844 147.549 130.494 147.549H98.8984V185.45H113.807Z" fill="white" stroke="#273A78" stroke-width="6"/>
<path d="M185.944 185.45V161.451H203.331V147.549H155.945V161.451H171.178V185.45H185.944Z" fill="white" stroke="#273A78" stroke-width="6"/>
<path d="M245.596 185.45L246.269 185.438C249.612 185.309 252.606 184.214 254.805 181.991C257.147 179.624 258.224 176.345 258.224 172.678V147.549H243.314V170.954C243.314 171.272 243.267 171.445 243.236 171.525C243.192 171.535 243.119 171.546 243.009 171.546H229.789C229.75 171.546 229.716 171.545 229.688 171.543C229.659 171.436 229.626 171.25 229.626 170.954V147.549H214.717V172.678C214.717 176.345 215.793 179.624 218.135 181.991C220.481 184.362 223.731 185.45 227.345 185.45H245.596Z" fill="white" stroke="#273A78" stroke-width="6"/>
<path d="M280.942 185.45L281.836 184.147L284.393 180.421H301.923L304.478 184.146L305.371 185.45H322.429L319.018 180.7L295.596 148.08L293.158 144.687L290.722 148.08L267.298 180.7L263.887 185.45H280.942ZM293.157 167.383L293.73 168.241H292.585L293.157 167.383Z" fill="white" stroke="#273A78" stroke-width="6"/>
<path d="M366.212 92.5083C366.212 90.9781 365.824 88.6758 363.69 87.5181C361.742 86.4616 359.632 87.1157 358.238 87.7661C348.079 92.2925 336.449 94.394 323.264 94.394C311.145 94.394 303.956 92.3352 299.657 87.9907C295.346 83.6351 293.214 76.2521 293.214 63.6245C293.214 52.6913 295.151 46.0564 299.031 42.0581C302.889 38.083 309.352 36.0181 320.247 36.0181H337.779C346.702 36.018 353.68 33.4235 358.5 28.3931C363.277 23.4065 365.541 16.4342 365.921 8.44385L365.925 8.37256V8.30029C365.925 5.09669 363.31 3.14611 360.625 3.146H310.474C290.838 3.14606 276.272 7.14458 266.718 17.1909C257.203 27.1973 253.301 42.5393 253.301 63.6245C253.301 85.0707 257.736 101.038 268.441 111.568C279.133 122.085 295.443 126.547 317.66 126.547C333.981 126.547 345.988 124.56 354.024 119.136C362.358 113.511 365.835 104.638 366.21 92.6021L366.212 92.5552V92.5083Z" fill="white" stroke="#273A78" stroke-width="6"/>
<path d="M363.265 185.45V171.546H344.026C343.918 171.546 343.83 171.54 343.76 171.534C343.739 171.403 343.721 171.214 343.721 170.954V147.549H328.812V172.678C328.812 176.49 329.637 179.845 331.905 182.222C334.204 184.63 337.421 185.45 340.865 185.45H363.265Z" fill="white" stroke="#273A78" stroke-width="6"/>
<path d="M62.5996 125.829C79.8253 125.829 94.0511 121.822 103.995 113.044C114.006 104.207 119.2 90.9603 119.2 73.541V40.9229C119.2 28.9972 116.368 19.9596 110.252 13.8643C104.153 7.78559 95.3215 5.16889 84.5234 4.87109L84.4824 4.87012H84.4414C81.2385 4.87012 79.2862 7.48478 79.2861 10.1689V77.2773C79.2861 82.3989 77.5616 86.4424 74.7568 89.2031C71.9476 91.9682 67.8209 93.6758 62.5996 93.6758C57.3776 93.6758 53.2504 91.9681 50.4414 89.2031C47.637 86.4425 45.9131 82.3989 45.9131 77.2773V40.9229C45.9131 29.0627 43.0781 20.0678 36.9873 13.9766C30.9149 7.9039 22.1304 5.24464 11.4043 4.87207L11.3525 4.87012H11.2998C8.3501 4.87022 6.00007 7.21948 6 10.1689V73.541C6 90.9603 11.1939 104.207 21.2041 113.044C31.1479 121.822 45.3733 125.829 62.5996 125.829Z" fill="white" stroke="#273A78" stroke-width="6"/>
<path d="M36.833 184.868L59.25 152.248L62.4785 147.549H45.0537L44.1729 148.963L34.3613 164.717L24.5498 148.963L23.6689 147.549H6.24414L9.47266 152.248L31.8887 184.868L34.3613 188.466L36.833 184.868Z" fill="white" stroke="#273A78" stroke-width="6"/>
<path d="M84.6367 185.45V147.549H69.7275V185.45H84.6367Z" fill="white" stroke="#273A78" stroke-width="6"/>
</svg>
