<svg width="833" height="246" viewBox="0 0 833 246" fill="none" xmlns="http://www.w3.org/2000/svg">
<path d="M531.78 161.082H559.973C563.036 161.082 565.448 160.241 567.095 158.718C568.74 157.195 569.629 154.982 569.629 152.218V110.146C569.629 106.362 570.724 103.366 572.771 101.315C574.82 99.2651 577.812 98.169 581.591 98.1689H618.31C629.016 98.1689 636.837 95.4427 642.105 90.4473C647.373 85.4526 650.101 78.1798 650.598 69.0635H650.597C650.597 67.3145 649.228 65.9553 647.479 65.9551H572.66C571.039 65.955 569.629 64.5349 569.629 62.9111V50.4072C569.629 46.6243 570.723 43.6287 572.771 41.5791C574.82 39.5295 577.812 38.4347 581.591 38.4346H635.767C647.172 38.4346 655.591 35.361 661.283 29.7207C666.798 24.2562 669.763 16.3733 670.395 6.5127L670.448 5.55273C670.447 3.80506 669.078 2.44739 667.329 2.44727H565.516C550.839 2.44727 540.193 5.91856 533.216 13.1689C526.238 20.4198 522.916 31.4636 522.916 46.6377V46.6387L522.713 152.218C522.713 154.983 523.551 157.197 525.099 158.72C526.646 160.243 528.911 161.082 531.78 161.082Z" fill="white" stroke="white" stroke-width="0.133333"/>
<path d="M483.396 243.424V228.937H500.948L500.969 228.959L513.857 243.424H527.766L514.771 228.848L514.689 228.755L514.812 228.737C518.86 228.144 521.965 226.562 524.059 224.072C526.152 221.582 527.24 218.175 527.24 213.92C527.24 209.17 525.808 205.569 523.025 203.153C520.241 200.737 516.093 199.498 510.642 199.498H471.209V243.424H483.396ZM483.396 210.281H508.855C511.142 210.281 512.697 210.628 513.681 211.31C514.67 211.995 515.072 213.011 515.072 214.316C515.072 215.621 514.67 216.637 513.681 217.322C512.697 218.004 511.143 218.352 508.855 218.352H483.396V210.281Z" fill="white" stroke="white" stroke-width="0.133333"/>
<path d="M583.018 243.424V210.279H607.03V199.498H550.005V210.279H571.034V243.424H583.018Z" fill="white" stroke="white" stroke-width="0.133333"/>
<path d="M644.403 243.424H669.613C673.762 243.424 677.067 242.188 679.335 239.896C681.603 237.605 682.842 234.249 682.842 229.994V199.498H670.674V227.613C670.674 229.213 670.224 230.471 669.415 231.33C668.606 232.189 667.446 232.641 666.041 232.641H647.773C646.368 232.641 645.258 232.189 644.499 231.328C643.741 230.469 643.343 229.211 643.343 227.613V199.498H631.175V229.994C631.175 234.249 632.409 237.605 634.675 239.896C636.94 242.188 640.246 243.424 644.403 243.424Z" fill="white" stroke="white" stroke-width="0.133333"/>
<path d="M716.203 243.424L720.953 236.507L720.973 236.478H749.622L749.642 236.507L754.392 243.424H767.521L735.297 198.555L703.073 243.424H716.203ZM726.716 227.973L732.259 219.638C733.862 217.254 734.83 215.676 735.232 213.905H735.362C735.714 215.454 736.5 216.856 737.765 218.779L738.336 219.638L743.879 227.973L743.948 228.076H726.647L726.716 227.973Z" fill="white" stroke="white" stroke-width="0.133333"/>
<path d="M769.143 162.075C791.56 162.075 807.02 159.296 816.999 152.561C826.66 146.04 831.196 135.802 831.922 120.745L831.979 119.272C831.979 117.593 831.534 116.536 830.7 116.083C829.862 115.628 828.6 115.765 826.919 116.558L826.918 116.559L825.533 117.162C811.168 123.294 794.955 126.088 776.877 126.088C759.905 126.088 748.468 123.261 741.278 115.997C734.089 108.734 731.161 97.0503 731.161 79.3838C731.161 63.9986 733.84 53.4077 740.385 46.666C746.93 39.924 757.325 37.0459 772.715 37.0459H796.93C808.425 37.0459 816.84 33.7262 822.503 27.8135C828.167 21.8998 831.087 13.3833 831.574 2.97363C831.573 1.2313 830.228 0.0675851 828.475 0.0673828H759.218C732.533 0.0673828 713.851 5.52349 701.838 18.1553C689.824 30.7881 684.466 50.6131 684.466 79.3838C684.466 108.55 690.515 129.218 704.113 142.596C717.712 155.973 738.876 162.075 769.143 162.075Z" fill="white" stroke="white" stroke-width="0.133333"/>
<path d="M801.185 243.424H827.91V232.641H805.549C803.955 232.641 802.792 232.241 802.028 231.403C801.266 230.567 800.915 229.307 800.915 227.613V199.498H788.747V229.994C788.747 234.749 789.786 238.103 791.853 240.269C793.918 242.433 797.023 243.424 801.185 243.424Z" fill="white" stroke="white" stroke-width="0.133333"/>
<path d="M416.877 161.082C440.087 161.082 458.575 155.676 471.26 144.478C483.943 133.281 490.834 116.283 490.834 93.0771V48.0283C490.834 32.16 487.066 20.9665 479.716 13.6406C472.365 6.3146 461.42 2.84483 447.041 2.44824C445.298 2.44942 444.133 3.80307 444.133 5.55566V98.2373C444.133 106.291 441.398 113.007 436.62 117.709C431.843 122.411 425.028 125.095 416.877 125.095C408.726 125.095 401.91 122.411 397.133 117.709C392.355 113.007 389.621 106.291 389.621 98.2373V48.0283C389.621 32.2596 385.852 21.116 378.526 13.79C371.2 6.46388 360.305 2.9443 346.025 2.44824C344.277 2.44912 342.917 3.80871 342.917 5.55566V93.0771C342.917 116.283 349.81 133.281 362.493 144.478C375.178 155.676 393.666 161.082 416.877 161.082Z" fill="white" stroke="white" stroke-width="0.133333"/>
<path d="M408.709 199.499H394.981L380.91 222.092L380.909 222.094C379.321 224.478 378.336 226.053 377.943 227.827H377.813C377.419 226.053 376.433 224.478 374.845 222.094L374.844 222.092L360.772 199.499H347.045L377.878 244.365L408.709 199.499Z" fill="white" stroke="white" stroke-width="0.133333"/>
<path d="M443.104 243.424V199.498H430.931V243.424H443.104Z" fill="white" stroke="white" stroke-width="0.133333"/>
<mask id="path-11-outside-1_4915_939" maskUnits="userSpaceOnUse" x="0" y="0.960938" width="224" height="245" fill="black">
<rect fill="white" y="0.960938" width="224" height="245"/>
<path d="M3.6573 82.8648L10.2865 46.9566H76.5785L41.7752 243.071H2L30.1741 82.8648H3.6573Z"/>
<path d="M217.173 32.5381H136.628L129.17 75.0479C133.313 70.7389 138.783 67.2586 145.577 64.6069C152.538 61.7895 159.665 60.3808 166.957 60.3808C183.364 60.3808 195.297 64.6898 202.754 73.3077C210.378 81.9257 214.19 92.8639 214.19 106.122C214.19 110.266 213.775 114.989 212.947 120.292C209.632 139.351 201.511 154.681 188.584 166.282C175.657 177.883 159.167 183.684 139.114 183.684C121.215 183.684 107.46 179.458 97.8472 171.006C88.4006 162.553 83.6773 151.284 83.6773 137.197L83.9259 132.473H117.983C118.315 139.103 120.635 144.406 124.944 148.383C129.419 152.361 135.717 154.35 143.837 154.35C153.781 154.35 161.736 151.284 167.702 145.152C173.834 139.02 177.812 130.899 179.635 120.789C180.132 117.806 180.381 114.989 180.381 112.337C180.381 104.879 178.226 99.1616 173.917 95.1841C169.774 91.2066 163.559 89.2178 155.273 89.2178C148.312 89.2178 142.18 90.958 136.877 94.4383C131.573 97.9186 127.513 102.559 124.695 108.36H91.1352L109.78 1.96094H222.393L217.173 32.5381Z"/>
<path d="M93.4485 238.023H79.9622L76.6269 244.452H69.5212L87.6479 210.663H95.527L101.666 244.452H94.5119L93.4485 238.023ZM92.5784 232.754L90.1615 218.446L82.7174 232.754H92.5784Z"/>
<path d="M125.826 217.286C128.598 217.286 130.773 218.043 132.352 219.558C133.963 221.04 134.769 223.167 134.769 225.938C134.769 226.969 134.688 227.904 134.527 228.742L131.723 244.452H125.004L127.615 229.66C127.711 229.08 127.76 228.516 127.76 227.968C127.76 226.357 127.325 225.133 126.455 224.295C125.617 223.457 124.408 223.038 122.829 223.038C121.025 223.038 119.478 223.586 118.189 224.681C116.932 225.745 116.094 227.292 115.675 229.322L113.017 244.452H106.201L110.938 217.672H117.754L117.174 220.959C118.269 219.832 119.574 218.945 121.089 218.301C122.604 217.624 124.183 217.286 125.826 217.286Z"/>
<path d="M150.147 244.887C147.859 244.887 145.828 244.419 144.056 243.485C142.316 242.55 140.962 241.229 139.996 239.521C139.029 237.813 138.545 235.848 138.545 233.624C138.545 230.595 139.254 227.84 140.672 225.358C142.122 222.845 144.088 220.863 146.57 219.413C149.083 217.962 151.871 217.237 154.932 217.237C157.22 217.237 159.25 217.721 161.023 218.688C162.827 219.622 164.213 220.943 165.18 222.651C166.179 224.359 166.678 226.325 166.678 228.548C166.678 231.61 165.953 234.381 164.503 236.863C163.053 239.344 161.055 241.31 158.509 242.76C155.995 244.178 153.208 244.887 150.147 244.887ZM151.065 239.086C152.676 239.086 154.143 238.619 155.464 237.684C156.785 236.75 157.816 235.509 158.557 233.962C159.299 232.416 159.669 230.788 159.669 229.08C159.669 227.147 159.121 225.664 158.026 224.633C156.962 223.57 155.609 223.038 153.965 223.038C152.322 223.038 150.856 223.505 149.567 224.44C148.31 225.374 147.327 226.631 146.618 228.21C145.909 229.757 145.554 231.4 145.554 233.141C145.554 235.042 146.054 236.508 147.053 237.539C148.084 238.571 149.422 239.086 151.065 239.086Z"/>
<path d="M179.473 244.887C177.507 244.887 175.719 244.564 174.107 243.92C172.528 243.243 171.272 242.325 170.337 241.165C169.435 239.972 168.984 238.619 168.984 237.104C168.984 236.879 169.016 236.508 169.08 235.993H175.654C175.558 237.12 175.896 238.039 176.669 238.748C177.443 239.425 178.538 239.763 179.956 239.763C181.245 239.763 182.309 239.537 183.147 239.086C184.017 238.603 184.452 237.91 184.452 237.008C184.452 236.202 184.049 235.557 183.243 235.074C182.47 234.591 181.229 234.043 179.521 233.431C177.813 232.818 176.395 232.222 175.268 231.642C174.14 231.062 173.173 230.256 172.367 229.225C171.562 228.194 171.159 226.889 171.159 225.31C171.159 223.731 171.61 222.329 172.512 221.104C173.447 219.88 174.736 218.929 176.379 218.252C178.023 217.576 179.908 217.237 182.035 217.237C184.065 217.237 185.854 217.576 187.4 218.252C188.947 218.929 190.14 219.88 190.977 221.104C191.848 222.297 192.283 223.666 192.283 225.213C192.283 225.6 192.266 225.89 192.234 226.083H185.95C186.047 224.955 185.725 224.053 184.984 223.376C184.242 222.7 183.163 222.361 181.745 222.361C180.585 222.361 179.634 222.619 178.893 223.135C178.152 223.618 177.781 224.279 177.781 225.116C177.781 225.954 178.2 226.647 179.038 227.195C179.876 227.711 181.165 228.291 182.905 228.935C184.645 229.612 186.031 230.24 187.062 230.82C188.125 231.368 189.044 232.142 189.817 233.141C190.591 234.107 190.977 235.332 190.977 236.814C190.977 238.458 190.478 239.892 189.479 241.116C188.48 242.341 187.11 243.275 185.37 243.92C183.63 244.564 181.664 244.887 179.473 244.887Z"/>
</mask>
<path d="M3.6573 82.8648L10.2865 46.9566H76.5785L41.7752 243.071H2L30.1741 82.8648H3.6573Z" fill="white"/>
<path d="M217.173 32.5381H136.628L129.17 75.0479C133.313 70.7389 138.783 67.2586 145.577 64.6069C152.538 61.7895 159.665 60.3808 166.957 60.3808C183.364 60.3808 195.297 64.6898 202.754 73.3077C210.378 81.9257 214.19 92.8639 214.19 106.122C214.19 110.266 213.775 114.989 212.947 120.292C209.632 139.351 201.511 154.681 188.584 166.282C175.657 177.883 159.167 183.684 139.114 183.684C121.215 183.684 107.46 179.458 97.8472 171.006C88.4006 162.553 83.6773 151.284 83.6773 137.197L83.9259 132.473H117.983C118.315 139.103 120.635 144.406 124.944 148.383C129.419 152.361 135.717 154.35 143.837 154.35C153.781 154.35 161.736 151.284 167.702 145.152C173.834 139.02 177.812 130.899 179.635 120.789C180.132 117.806 180.381 114.989 180.381 112.337C180.381 104.879 178.226 99.1616 173.917 95.1841C169.774 91.2066 163.559 89.2178 155.273 89.2178C148.312 89.2178 142.18 90.958 136.877 94.4383C131.573 97.9186 127.513 102.559 124.695 108.36H91.1352L109.78 1.96094H222.393L217.173 32.5381Z" fill="white"/>
<path d="M93.4485 238.023H79.9622L76.6269 244.452H69.5212L87.6479 210.663H95.527L101.666 244.452H94.5119L93.4485 238.023ZM92.5784 232.754L90.1615 218.446L82.7174 232.754H92.5784Z" fill="white"/>
<path d="M125.826 217.286C128.598 217.286 130.773 218.043 132.352 219.558C133.963 221.04 134.769 223.167 134.769 225.938C134.769 226.969 134.688 227.904 134.527 228.742L131.723 244.452H125.004L127.615 229.66C127.711 229.08 127.76 228.516 127.76 227.968C127.76 226.357 127.325 225.133 126.455 224.295C125.617 223.457 124.408 223.038 122.829 223.038C121.025 223.038 119.478 223.586 118.189 224.681C116.932 225.745 116.094 227.292 115.675 229.322L113.017 244.452H106.201L110.938 217.672H117.754L117.174 220.959C118.269 219.832 119.574 218.945 121.089 218.301C122.604 217.624 124.183 217.286 125.826 217.286Z" fill="white"/>
<path d="M150.147 244.887C147.859 244.887 145.828 244.419 144.056 243.485C142.316 242.55 140.962 241.229 139.996 239.521C139.029 237.813 138.545 235.848 138.545 233.624C138.545 230.595 139.254 227.84 140.672 225.358C142.122 222.845 144.088 220.863 146.57 219.413C149.083 217.962 151.871 217.237 154.932 217.237C157.22 217.237 159.25 217.721 161.023 218.688C162.827 219.622 164.213 220.943 165.18 222.651C166.179 224.359 166.678 226.325 166.678 228.548C166.678 231.61 165.953 234.381 164.503 236.863C163.053 239.344 161.055 241.31 158.509 242.76C155.995 244.178 153.208 244.887 150.147 244.887ZM151.065 239.086C152.676 239.086 154.143 238.619 155.464 237.684C156.785 236.75 157.816 235.509 158.557 233.962C159.299 232.416 159.669 230.788 159.669 229.08C159.669 227.147 159.121 225.664 158.026 224.633C156.962 223.57 155.609 223.038 153.965 223.038C152.322 223.038 150.856 223.505 149.567 224.44C148.31 225.374 147.327 226.631 146.618 228.21C145.909 229.757 145.554 231.4 145.554 233.141C145.554 235.042 146.054 236.508 147.053 237.539C148.084 238.571 149.422 239.086 151.065 239.086Z" fill="white"/>
<path d="M179.473 244.887C177.507 244.887 175.719 244.564 174.107 243.92C172.528 243.243 171.272 242.325 170.337 241.165C169.435 239.972 168.984 238.619 168.984 237.104C168.984 236.879 169.016 236.508 169.08 235.993H175.654C175.558 237.12 175.896 238.039 176.669 238.748C177.443 239.425 178.538 239.763 179.956 239.763C181.245 239.763 182.309 239.537 183.147 239.086C184.017 238.603 184.452 237.91 184.452 237.008C184.452 236.202 184.049 235.557 183.243 235.074C182.47 234.591 181.229 234.043 179.521 233.431C177.813 232.818 176.395 232.222 175.268 231.642C174.14 231.062 173.173 230.256 172.367 229.225C171.562 228.194 171.159 226.889 171.159 225.31C171.159 223.731 171.61 222.329 172.512 221.104C173.447 219.88 174.736 218.929 176.379 218.252C178.023 217.576 179.908 217.237 182.035 217.237C184.065 217.237 185.854 217.576 187.4 218.252C188.947 218.929 190.14 219.88 190.977 221.104C191.848 222.297 192.283 223.666 192.283 225.213C192.283 225.6 192.266 225.89 192.234 226.083H185.95C186.047 224.955 185.725 224.053 184.984 223.376C184.242 222.7 183.163 222.361 181.745 222.361C180.585 222.361 179.634 222.619 178.893 223.135C178.152 223.618 177.781 224.279 177.781 225.116C177.781 225.954 178.2 226.647 179.038 227.195C179.876 227.711 181.165 228.291 182.905 228.935C184.645 229.612 186.031 230.24 187.062 230.82C188.125 231.368 189.044 232.142 189.817 233.141C190.591 234.107 190.977 235.332 190.977 236.814C190.977 238.458 190.478 239.892 189.479 241.116C188.48 242.341 187.11 243.275 185.37 243.92C183.63 244.564 181.664 244.887 179.473 244.887Z" fill="white"/>
<path d="M3.6573 82.8648L10.2865 46.9566H76.5785L41.7752 243.071H2L30.1741 82.8648H3.6573Z" stroke="white" stroke-width="2" mask="url(#path-11-outside-1_4915_939)"/>
<path d="M217.173 32.5381H136.628L129.17 75.0479C133.313 70.7389 138.783 67.2586 145.577 64.6069C152.538 61.7895 159.665 60.3808 166.957 60.3808C183.364 60.3808 195.297 64.6898 202.754 73.3077C210.378 81.9257 214.19 92.8639 214.19 106.122C214.19 110.266 213.775 114.989 212.947 120.292C209.632 139.351 201.511 154.681 188.584 166.282C175.657 177.883 159.167 183.684 139.114 183.684C121.215 183.684 107.46 179.458 97.8472 171.006C88.4006 162.553 83.6773 151.284 83.6773 137.197L83.9259 132.473H117.983C118.315 139.103 120.635 144.406 124.944 148.383C129.419 152.361 135.717 154.35 143.837 154.35C153.781 154.35 161.736 151.284 167.702 145.152C173.834 139.02 177.812 130.899 179.635 120.789C180.132 117.806 180.381 114.989 180.381 112.337C180.381 104.879 178.226 99.1616 173.917 95.1841C169.774 91.2066 163.559 89.2178 155.273 89.2178C148.312 89.2178 142.18 90.958 136.877 94.4383C131.573 97.9186 127.513 102.559 124.695 108.36H91.1352L109.78 1.96094H222.393L217.173 32.5381Z" stroke="white" stroke-width="2" mask="url(#path-11-outside-1_4915_939)"/>
<path d="M93.4485 238.023H79.9622L76.6269 244.452H69.5212L87.6479 210.663H95.527L101.666 244.452H94.5119L93.4485 238.023ZM92.5784 232.754L90.1615 218.446L82.7174 232.754H92.5784Z" stroke="white" stroke-width="2" mask="url(#path-11-outside-1_4915_939)"/>
<path d="M125.826 217.286C128.598 217.286 130.773 218.043 132.352 219.558C133.963 221.04 134.769 223.167 134.769 225.938C134.769 226.969 134.688 227.904 134.527 228.742L131.723 244.452H125.004L127.615 229.66C127.711 229.08 127.76 228.516 127.76 227.968C127.76 226.357 127.325 225.133 126.455 224.295C125.617 223.457 124.408 223.038 122.829 223.038C121.025 223.038 119.478 223.586 118.189 224.681C116.932 225.745 116.094 227.292 115.675 229.322L113.017 244.452H106.201L110.938 217.672H117.754L117.174 220.959C118.269 219.832 119.574 218.945 121.089 218.301C122.604 217.624 124.183 217.286 125.826 217.286Z" stroke="white" stroke-width="2" mask="url(#path-11-outside-1_4915_939)"/>
<path d="M150.147 244.887C147.859 244.887 145.828 244.419 144.056 243.485C142.316 242.55 140.962 241.229 139.996 239.521C139.029 237.813 138.545 235.848 138.545 233.624C138.545 230.595 139.254 227.84 140.672 225.358C142.122 222.845 144.088 220.863 146.57 219.413C149.083 217.962 151.871 217.237 154.932 217.237C157.22 217.237 159.25 217.721 161.023 218.688C162.827 219.622 164.213 220.943 165.18 222.651C166.179 224.359 166.678 226.325 166.678 228.548C166.678 231.61 165.953 234.381 164.503 236.863C163.053 239.344 161.055 241.31 158.509 242.76C155.995 244.178 153.208 244.887 150.147 244.887ZM151.065 239.086C152.676 239.086 154.143 238.619 155.464 237.684C156.785 236.75 157.816 235.509 158.557 233.962C159.299 232.416 159.669 230.788 159.669 229.08C159.669 227.147 159.121 225.664 158.026 224.633C156.962 223.57 155.609 223.038 153.965 223.038C152.322 223.038 150.856 223.505 149.567 224.44C148.31 225.374 147.327 226.631 146.618 228.21C145.909 229.757 145.554 231.4 145.554 233.141C145.554 235.042 146.054 236.508 147.053 237.539C148.084 238.571 149.422 239.086 151.065 239.086Z" stroke="white" stroke-width="2" mask="url(#path-11-outside-1_4915_939)"/>
<path d="M179.473 244.887C177.507 244.887 175.719 244.564 174.107 243.92C172.528 243.243 171.272 242.325 170.337 241.165C169.435 239.972 168.984 238.619 168.984 237.104C168.984 236.879 169.016 236.508 169.08 235.993H175.654C175.558 237.12 175.896 238.039 176.669 238.748C177.443 239.425 178.538 239.763 179.956 239.763C181.245 239.763 182.309 239.537 183.147 239.086C184.017 238.603 184.452 237.91 184.452 237.008C184.452 236.202 184.049 235.557 183.243 235.074C182.47 234.591 181.229 234.043 179.521 233.431C177.813 232.818 176.395 232.222 175.268 231.642C174.14 231.062 173.173 230.256 172.367 229.225C171.562 228.194 171.159 226.889 171.159 225.31C171.159 223.731 171.61 222.329 172.512 221.104C173.447 219.88 174.736 218.929 176.379 218.252C178.023 217.576 179.908 217.237 182.035 217.237C184.065 217.237 185.854 217.576 187.4 218.252C188.947 218.929 190.14 219.88 190.977 221.104C191.848 222.297 192.283 223.666 192.283 225.213C192.283 225.6 192.266 225.89 192.234 226.083H185.95C186.047 224.955 185.725 224.053 184.984 223.376C184.242 222.7 183.163 222.361 181.745 222.361C180.585 222.361 179.634 222.619 178.893 223.135C178.152 223.618 177.781 224.279 177.781 225.116C177.781 225.954 178.2 226.647 179.038 227.195C179.876 227.711 181.165 228.291 182.905 228.935C184.645 229.612 186.031 230.24 187.062 230.82C188.125 231.368 189.044 232.142 189.817 233.141C190.591 234.107 190.977 235.332 190.977 236.814C190.977 238.458 190.478 239.892 189.479 241.116C188.48 242.341 187.11 243.275 185.37 243.92C183.63 244.564 181.664 244.887 179.473 244.887Z" stroke="white" stroke-width="2" mask="url(#path-11-outside-1_4915_939)"/>
<path d="M279.321 0L279.321 244.452" stroke="white" stroke-width="15"/>
</svg>
