<svg width="154" height="154" viewBox="0 0 154 154" fill="none" xmlns="http://www.w3.org/2000/svg">
<path fill-rule="evenodd" clip-rule="evenodd" d="M73.0756 0.0712986C72.9711 0.130712 72.3157 0.216475 71.6192 0.261826C70.9227 0.307178 70.0393 0.396742 69.6562 0.460716C69.2732 0.524817 68.5323 0.641619 68.0099 0.720414C67.4875 0.799083 66.5187 0.979347 65.857 1.12085C62.7113 1.79352 63.1192 1.69193 60.538 2.44682C59.946 2.61999 59.3476 2.81153 59.2083 2.87246C59.069 2.9334 58.5845 3.1086 58.1318 3.26163C57.2338 3.56541 55.6315 4.17893 55.0291 4.44964C54.8201 4.54351 54.3357 4.75203 53.9526 4.91279C52.7631 5.41229 49.4721 7.13731 47.7798 8.14847C41.8447 11.6948 36.2669 16.7396 31.9022 22.5088C31.0386 23.6501 28.6241 27.2321 28.6241 27.3717C28.6241 27.4171 28.4741 27.692 28.2907 27.9826C27.2556 29.6229 25.5362 33.11 24.6811 35.3035C24.4774 35.8261 24.2577 36.3676 24.1928 36.507C24.0758 36.7586 23.1328 39.6004 22.7635 40.8141C22.465 41.7953 21.7861 44.6684 21.5511 45.9447C21.0749 48.5312 20.8325 50.5607 20.63 53.6586C20.49 55.8009 20.4973 56.538 20.6871 59.4225C20.9877 63.9917 21.1344 65.0659 21.9951 69.0006C22.1703 69.8019 22.3594 70.6 22.4153 70.7741C22.4711 70.9483 22.6173 71.4614 22.74 71.9143C23.1857 73.5588 24.2547 76.6658 24.7883 77.8683C24.8966 78.1121 25.0866 78.5397 25.2108 78.8184C25.3347 79.0971 25.5602 79.6101 25.7116 79.9585C26.171 81.0157 27.1906 82.9945 27.9478 84.2987C28.3416 84.9773 28.7277 85.6465 28.8057 85.7858C29.3085 86.6842 31.5915 90.0163 32.1908 90.7264C32.3083 90.8657 32.7935 91.4711 33.2689 92.0716C35.1833 94.4902 38.3715 97.7124 40.9087 99.7931C42.9498 101.467 45.5943 103.458 45.7763 103.458C45.8063 103.458 46.342 103.8 46.9669 104.218C47.5917 104.636 48.1379 104.978 48.1808 104.978C48.2237 104.978 48.4713 105.111 48.7311 105.273C49.6575 105.852 53.0632 107.638 53.241 107.638C53.2858 107.638 53.7349 107.833 54.2391 108.07C54.7432 108.308 55.7826 108.743 56.5488 109.038C57.315 109.333 58.0558 109.62 58.1951 109.675C58.3344 109.73 58.6764 109.843 58.955 109.927C59.2336 110.01 59.661 110.15 59.9048 110.238C60.1486 110.326 60.6045 110.468 60.9179 110.553C61.2314 110.638 61.6303 110.752 61.8044 110.806C64.5528 111.654 68.0968 112.293 72.3791 112.712C74.0906 112.88 80.3081 112.874 81.8772 112.703C85.1861 112.342 86.2066 112.194 88.2727 111.772C90.846 111.247 94.4733 110.236 96.0612 109.602C96.2701 109.518 96.6406 109.378 96.8843 109.291C97.1281 109.204 97.4416 109.087 97.5809 109.032C97.7202 108.977 98.1476 108.806 98.5307 108.654C101.739 107.375 105.93 105.079 109.232 102.79C110.544 101.881 113.017 100 113.348 99.6592C113.383 99.6233 113.896 99.1698 114.488 98.6513C118.083 95.502 121.409 91.6415 124.261 87.306C125.344 85.6589 125.574 85.2759 126.61 83.3789C128.141 80.5765 129.851 76.5928 130.715 73.8145C132.27 68.8144 132.956 65.1409 133.354 59.683C133.668 55.3736 133.332 50.4843 132.387 45.628C132.068 43.9895 131.995 43.6636 131.661 42.3976C131.004 39.9075 130.326 37.7458 129.813 36.507C129.755 36.3676 129.441 35.5981 129.115 34.7968C127.692 31.2965 125.359 27.049 123.133 23.9031C119.385 18.608 114.493 13.7631 109.042 9.9486C108.241 9.38791 105.775 7.81378 105.698 7.81378C105.676 7.81378 105.181 7.53914 104.596 7.20343C103.645 6.65756 100.128 4.89873 99.4805 4.64511C99.3412 4.59051 99.0192 4.45458 98.7649 4.34298C98.5106 4.23137 98.2676 4.14003 98.2252 4.14003C98.1828 4.14003 97.9065 4.03375 97.6111 3.90378C96.009 3.1988 92.0052 1.93807 89.919 1.48176C86.9713 0.836831 84.9365 0.501256 82.0672 0.186834C80.5432 0.0198684 73.3291 -0.0728642 73.0756 0.0712986ZM72.569 5.30183C69.3393 5.63322 66.1498 6.18175 64.1473 6.75029C63.799 6.84923 63.2861 6.99035 63.0075 7.06395C62.7289 7.13743 62.159 7.31542 61.7411 7.45933C61.3232 7.60324 60.8238 7.74841 60.6315 7.78198C60.4391 7.81556 60.2504 7.89346 60.2124 7.95503C60.1743 8.01672 60.0465 8.06714 59.9284 8.06714C59.7447 8.06714 56.9838 9.16761 55.599 9.79266C54.9186 10.0999 52.3857 11.3771 52.2429 11.485C52.1733 11.5376 51.7744 11.7676 51.3564 11.9961C49.8505 12.8197 45.219 16.0252 44.5091 16.7353C44.4264 16.818 44.0535 17.139 43.6805 17.4486C41.4421 19.3065 38.4508 22.4511 36.3349 25.171C33.7563 28.4852 30.9193 33.4136 29.5176 37.0137C29.3007 37.5711 29.0695 38.1412 29.0042 38.2805C28.8474 38.6148 27.8848 41.528 27.6646 42.3343C26.3859 47.0171 25.8609 50.4808 25.7539 54.939C25.6833 57.8854 25.8283 61.3395 26.0929 63.011C26.1677 63.4835 26.2851 64.2406 26.3538 64.6935C26.5866 66.2258 27.1738 68.9303 27.5505 70.2041C27.8789 71.3147 28.883 74.3752 29.0052 74.6379C29.0701 74.7773 29.2897 75.3188 29.4933 75.8414C30.146 77.5162 31.5895 80.5216 32.2243 81.5275C32.4034 81.8115 32.5501 82.0721 32.5501 82.1066C32.5501 82.321 36.3127 87.9209 36.5969 88.1294C36.6443 88.1643 36.9271 88.5063 37.2252 88.8895C37.9445 89.8143 39.7287 91.779 40.8491 92.88C42.5129 94.515 43.737 95.5779 46.2274 97.5497C48.3632 99.2406 52.3297 101.601 55.4723 103.05C57.2395 103.865 57.7635 104.091 57.8837 104.091C57.9524 104.091 58.1076 104.145 58.2286 104.21C59.0733 104.666 64.0137 106.214 65.5404 106.5C65.819 106.553 66.6168 106.708 67.3134 106.846C70.9268 107.562 72.4455 107.696 77.0015 107.697C81.55 107.699 83.0493 107.567 86.6896 106.846C87.3862 106.708 88.184 106.553 88.4626 106.501C89.5445 106.298 93.3989 105.165 94.2882 104.787C94.4971 104.699 94.8106 104.585 94.9847 104.535C95.1588 104.484 95.4723 104.371 95.6812 104.282C95.8902 104.194 96.3746 103.995 96.7577 103.841C97.958 103.358 100.91 101.931 102.013 101.301C106.98 98.4628 111.515 94.8668 114.871 91.1046C116.262 89.5449 116.472 89.3021 116.83 88.8388C117.039 88.5686 117.269 88.2842 117.34 88.2068C117.568 87.9589 119.101 85.8195 119.801 84.7724C120.173 84.215 120.583 83.6045 120.712 83.4156C120.841 83.2269 120.946 83.0362 120.946 82.9919C120.946 82.9475 121.052 82.7599 121.182 82.575C121.847 81.6239 123.482 78.3621 124.302 76.3481C124.628 75.5469 124.943 74.7773 125 74.6379C125.52 73.3844 126.34 70.771 126.771 69.0006C126.83 68.7568 126.937 68.3292 127.009 68.0505C127.165 67.4475 127.457 65.9646 127.646 64.8202C128.376 60.4029 128.511 54.4318 127.973 50.3785C127.676 48.1378 127.302 45.9965 127.024 44.9313C126.96 44.6874 126.824 44.1458 126.722 43.7278C126.48 42.7406 126.044 41.2024 125.822 40.5608C125.356 39.2078 124.953 38.0951 124.722 37.5204C124.581 37.1721 124.421 36.773 124.366 36.6337C123.957 35.6045 122.578 32.7729 121.836 31.4398C119.188 26.6778 115.539 22.0974 111.385 18.3193C107.543 14.8253 103.161 11.9854 97.7317 9.47063C97.1181 9.18636 96.5453 8.95391 96.459 8.95391C96.3725 8.95391 96.2476 8.90386 96.1815 8.8428C96.1152 8.78162 95.7192 8.60743 95.3013 8.45554C90.3777 6.66668 86.5888 5.80804 81.3073 5.28397C79.7555 5.13005 74.1317 5.14145 72.569 5.30183ZM75.2285 10.4142C72.5643 10.9292 70.4564 12.2245 68.8825 14.3135C65.8165 18.3829 66.0981 23.8122 69.568 27.5251C70.7926 28.8354 72.8053 30.0597 74.2787 30.3903C76.1049 30.8001 78.1148 30.8216 79.5459 30.4463C82.3562 29.7094 84.8322 27.7204 86.1233 25.1622C86.576 24.2651 86.6576 24.0339 87.0142 22.6354C87.8109 19.5116 86.7065 15.7316 84.296 13.3322C81.8345 10.8821 78.4465 9.79177 75.2285 10.4142ZM76.0393 15.4762C74.561 15.7978 73.4607 16.5765 72.636 17.8849C72.1075 18.7232 71.9356 19.3661 71.9372 20.4966C71.9404 22.6381 73.0078 24.3146 74.9205 25.1821C75.6409 25.5089 75.8689 25.5491 77.0015 25.5491C78.1361 25.5491 78.3615 25.5092 79.0879 25.1797C80.4269 24.5724 81.2614 23.6303 81.9133 21.9897C82.3392 20.9182 82.1509 19.2167 81.472 18.0017C81.052 17.2501 80.1255 16.3552 79.3635 15.9652C78.9028 15.7296 76.9836 15.2236 76.8321 15.298C76.8208 15.3035 76.464 15.3837 76.0393 15.4762ZM47.5572 36.0642C44.8706 36.4794 42.461 38.5559 41.4564 41.3219C41.1568 42.1471 41.1291 44.9549 41.412 45.818C42.3258 48.6055 44.4758 50.5569 47.3039 51.1657C47.695 51.2498 51.0365 51.3313 56.0422 51.3787L64.1473 51.4553L64.1368 56.3959C64.1258 61.5565 64.1027 61.8292 63.4997 63.9334C63.3899 64.3166 63.2552 64.8297 63.2007 65.0735C63.1461 65.3174 62.8048 66.657 62.4421 68.0505C62.0795 69.444 61.5837 71.3537 61.3404 72.2943C61.0971 73.2349 60.7563 74.5461 60.5832 75.208C60.4101 75.8699 60.2203 76.611 60.1615 76.8548C60.1027 77.0987 59.9104 77.8398 59.7341 78.5017C59.3711 79.8644 59.3089 80.1094 59.1242 80.9086C59.0516 81.2222 58.9196 81.7352 58.8309 82.0487C58.4996 83.2189 57.8921 85.5534 57.743 86.2292C57.6893 86.4731 57.4931 87.2427 57.3071 87.9394C57.1211 88.6361 56.9157 89.4342 56.8507 89.7129C56.074 93.0446 56.8013 95.7458 59.0545 97.8965C60.8532 99.6135 63.6271 100.386 66.1103 99.8626C67.9371 99.4772 69.8632 98.2342 70.9433 96.7437C71.3987 96.1154 72.1234 94.514 72.2904 93.7667C72.4438 93.0812 72.7637 91.6655 72.949 90.8531C73.0125 90.5744 73.1538 89.9473 73.2631 89.4596C73.3726 88.9718 73.5153 88.3448 73.5804 88.0661C74.0716 85.966 74.2539 85.1675 74.9101 82.2388C75.0974 81.4027 75.3007 80.5191 75.3616 80.2752C75.4227 80.0313 75.5616 79.4328 75.6704 78.9451C75.7792 78.4573 75.9217 77.8303 75.9872 77.5516C76.2989 76.2255 76.7428 74.2317 76.777 74.0045C76.7979 73.8652 76.8979 73.7511 76.9992 73.7511C77.1282 73.7511 77.2525 74.0752 77.4128 74.8279C77.539 75.4202 77.6945 76.1042 77.7583 76.3481C77.8221 76.592 78.0255 77.4756 78.2104 78.3117C78.3952 79.1478 78.6587 80.3164 78.7962 80.9086C79.0798 82.1316 79.3208 83.1843 79.6008 84.424C79.7071 84.8944 79.8471 85.5071 79.9119 85.7858C79.9767 86.0645 80.1137 86.6631 80.2162 87.116C80.3188 87.5689 80.5144 88.424 80.6511 89.0162C80.7877 89.6084 81.0506 90.7771 81.2355 91.6131C82.0777 95.4229 82.5412 96.494 83.941 97.8645C86.5334 100.403 90.4179 100.908 93.5916 99.1205C94.6799 98.5076 96.1127 96.9805 96.6559 95.8548C97.3505 94.4152 97.5694 93.3236 97.4751 91.7678C97.4319 91.0557 97.3044 90.1595 97.1917 89.7763C97.079 89.3931 96.9415 88.88 96.886 88.6361C96.8305 88.3923 96.5553 87.3092 96.2744 86.2292C95.2988 82.4786 94.7095 80.2014 94.2252 78.3117C93.9575 77.2665 93.4421 75.2713 93.0799 73.8778C92.7177 72.4843 92.3766 71.1447 92.3222 70.9008C92.2676 70.657 92.1259 70.1154 92.0072 69.6974C91.738 68.7489 91.5935 68.1924 91.4482 67.5438C91.3858 67.2651 91.1828 66.467 90.997 65.7703C90.8113 65.0735 90.6078 64.2573 90.5448 63.9566C90.4817 63.6558 90.4034 63.3666 90.3709 63.3139C90.3383 63.2612 90.2233 62.7947 90.1154 62.2773C89.9575 61.5202 89.9191 60.3648 89.9191 56.3642L89.919 51.392L97.4226 51.3897C103.196 51.3879 105.189 51.3468 106.066 51.211C107.397 51.005 107.429 50.9951 108.634 50.4075C110.397 49.5485 111.819 47.9047 112.528 45.9072C112.85 44.9995 112.868 44.8371 112.814 43.3199C112.782 42.4258 112.683 41.5308 112.594 41.3209C111.449 38.6289 110.239 37.3693 107.839 36.3695L106.952 36.0003L77.5714 35.9833C61.4118 35.974 47.9054 36.0104 47.5572 36.0642ZM48.3411 41.1431C47.4203 41.3599 46.8296 41.8235 46.4698 42.6124C46.0499 43.533 46.1725 44.42 46.8248 45.1823C47.6914 46.195 47.0245 46.1262 56.7387 46.2053C65.9542 46.2803 65.5557 46.2532 66.7404 46.8858C67.3072 47.1886 68.3945 48.3143 68.657 48.87C68.7691 49.1074 68.9401 49.4672 69.037 49.6695C69.2884 50.1946 69.2944 61.6035 69.0439 62.7299C68.868 63.5213 68.3354 65.6988 68.1298 66.467C67.6221 68.3646 67.3953 69.2352 67.3378 69.5073C67.301 69.6815 67.1185 70.3941 66.9323 71.0909C66.746 71.7876 66.5455 72.5572 66.4868 72.801C66.428 73.0449 66.2396 73.786 66.0681 74.4479C65.1675 77.924 64.5215 80.4122 64.0618 82.1754C63.7803 83.2554 63.5046 84.3385 63.4494 84.5824C63.394 84.8262 63.1931 85.5958 63.0028 86.2925C62.8125 86.9893 62.612 87.7589 62.5573 88.0027C62.5025 88.2466 62.3011 89.0162 62.1098 89.7129C61.7012 91.2008 61.5772 92.7004 61.8228 93.185C62.4036 94.3309 63.2764 94.899 64.4639 94.9039C65.7545 94.9094 66.8502 94.0982 67.2189 92.8648C67.2997 92.5944 67.515 91.6892 67.6975 90.8531C67.8798 90.017 68.0797 89.1334 68.1415 88.8895C68.2033 88.6456 68.343 88.0471 68.4518 87.5594C68.5605 87.0716 68.7031 86.4446 68.7686 86.1659C68.8341 85.8872 69.0349 85.0036 69.2149 84.2023C69.395 83.4011 69.5919 82.546 69.6528 82.3021C69.7136 82.0582 69.9152 81.1746 70.1009 80.3385C70.2865 79.5025 70.4875 78.6189 70.5476 78.375C70.6509 77.9556 70.9092 76.8249 71.6331 73.6245C71.8065 72.858 71.9981 72.0315 72.059 71.7876C72.1198 71.5437 72.3214 70.6601 72.5071 69.824C72.9343 67.8996 73.0563 67.4208 73.2921 66.7443C73.9148 64.957 75.9713 63.8139 77.7992 64.2389C79.0773 64.5361 80.1703 65.3878 80.6244 66.44C80.8129 66.8771 81.1525 68.1892 81.6312 70.3308C82.0962 72.4115 82.4674 74.0344 82.5725 74.4479C82.6346 74.6917 82.8324 75.5469 83.0122 76.3481C83.192 77.1494 83.3924 78.033 83.4575 78.3117C83.5226 78.5904 83.6652 79.2174 83.7745 79.7051C83.8839 80.1929 84.0269 80.8199 84.0923 81.0986C84.1578 81.3773 84.3587 82.2609 84.5386 83.0622C84.7187 83.8634 84.917 84.7185 84.9795 84.9624C85.0419 85.2063 85.2422 86.0899 85.4246 86.926C85.607 87.762 85.8067 88.6456 85.8684 88.8895C85.93 89.1334 86.1266 89.9885 86.3052 90.7897C86.8083 93.0479 86.9694 93.5022 87.4462 94.0079C88.3202 94.9348 89.5762 95.2062 90.6789 94.7062C91.8559 94.1723 92.3443 93.3891 92.34 92.042C92.3385 91.5597 92.2966 91.0993 92.2469 91.0189C92.1972 90.9384 92.1152 90.6686 92.0647 90.4194C92.0142 90.1702 91.7424 89.0827 91.4609 88.0027C91.1794 86.9228 90.6829 85.0131 90.3578 83.7589C90.0327 82.5048 89.6248 80.9371 89.4513 80.2752C89.278 79.6133 89.0894 78.8722 89.0325 78.6284C88.9757 78.3845 88.7768 77.6149 88.5908 76.9182C88.4047 76.2214 88.2078 75.4518 88.153 75.208C88.0983 74.9641 87.8978 74.1945 87.7075 73.4978C87.5172 72.801 87.3168 72.0315 87.2621 71.7876C87.2074 71.5437 87.0679 71.0022 86.9522 70.5841C86.8364 70.1661 86.6927 69.596 86.6328 69.3173C86.5727 69.0386 86.3682 68.2405 86.1781 67.5438C85.9879 66.847 85.7862 66.0775 85.7297 65.8336C85.6732 65.5897 85.5381 65.0482 85.4294 64.6301C84.7805 62.1341 84.7943 62.3197 84.792 56.0158L84.79 50.0618L85.2605 49.0991C85.8201 47.9541 86.5698 47.2222 87.7661 46.653L88.5893 46.2614L97.2009 46.1981C103.302 46.1532 105.907 46.0922 106.136 45.9888C107.462 45.3914 108.142 43.7778 107.573 42.5782C107.248 41.8937 106.501 41.304 105.758 41.1445C104.943 40.9697 49.0835 40.9684 48.3411 41.1431ZM105.939 115.678C102.612 116.357 99.924 118.467 98.5446 121.479C98.332 121.944 98.1223 122.466 98.0786 122.64C98.035 122.814 97.9282 123.015 97.8414 123.087C97.7335 123.177 82.5237 123.229 49.6981 123.251L1.71266 123.283L1.18685 123.662C0.017178 124.505 -0.3335 125.856 0.339478 126.928C0.77462 127.621 1.22382 128.006 1.77598 128.161C2.06245 128.242 19.0858 128.287 49.9001 128.289C76.8252 128.29 97.6569 128.339 97.7554 128.402C97.8512 128.462 98.0885 128.92 98.2824 129.419C99.5141 132.585 101.963 134.766 105.369 135.729C106.286 135.989 109.116 136.018 109.992 135.777C112.548 135.075 114.328 133.96 115.785 132.151C116.3 131.512 116.584 131.013 117.421 129.271C117.479 129.15 117.528 128.979 117.529 128.891C117.536 128.326 116.696 128.355 135.031 128.287L152.29 128.224L152.77 127.925C153.413 127.526 153.997 126.501 153.999 125.771C154 125.027 153.479 124.091 152.811 123.637L152.29 123.283L135.013 123.22L117.736 123.157L117.49 122.523C116.18 119.153 114.245 117.211 111.005 116.015C109.701 115.533 107.397 115.38 105.939 115.678ZM107.142 120.643C104.268 121.189 102.39 123.641 102.743 126.387C102.944 127.953 103.739 129.21 105.053 130.038C106.141 130.724 106.649 130.854 108.042 130.802C109.085 130.763 109.346 130.705 110.072 130.347C111.105 129.838 111.981 128.926 112.454 127.87C113.729 125.022 112.188 121.719 109.169 120.827C108.605 120.66 107.553 120.565 107.142 120.643ZM49.9634 133.557C47.2219 133.956 44.6273 135.555 43.0197 137.838C42.4835 138.599 42.116 139.306 41.7095 140.359C41.5962 140.652 41.4523 140.949 41.3897 141.019C41.3151 141.102 34.4407 141.167 21.4942 141.209L1.71266 141.272L1.24497 141.563C0.987889 141.723 0.60315 142.137 0.390138 142.483C-0.332103 143.657 -0.0217012 144.963 1.18685 145.834L1.71266 146.213L21.5474 146.246L41.3821 146.28L41.6082 146.88C42.2629 148.616 42.8904 149.649 44.0004 150.818C45.1887 152.069 46.834 153.077 48.4437 153.54C48.8616 153.66 49.3785 153.814 49.5924 153.881C50.0896 154.038 52.4834 154.04 52.9938 153.885C53.2077 153.82 53.7531 153.665 54.2059 153.54C56.3212 152.958 58.2947 151.569 59.605 149.739C60.1539 148.973 61.0427 147.214 61.0465 146.886C61.0476 146.794 61.1025 146.634 61.1686 146.529C61.2748 146.361 66.5282 146.332 106.789 146.276L152.29 146.213L152.811 145.859C153.457 145.42 154 144.467 154 143.772C154 142.735 153.188 141.6 152.261 141.343C151.933 141.251 137.719 141.209 106.762 141.208C82.0007 141.206 61.6123 141.171 61.4548 141.128C61.2781 141.081 61.1422 140.924 61.0999 140.719C61.0622 140.535 60.7409 139.798 60.3859 139.08C59.1197 136.519 56.8609 134.652 54.0725 133.862C53.1518 133.601 50.8402 133.43 49.9634 133.557ZM50.5919 138.676C49.7253 138.763 48.4214 139.431 47.7134 140.149C47.392 140.475 46.9418 141.117 46.7128 141.577C46.321 142.363 46.2967 142.49 46.2988 143.742C46.3007 144.932 46.3377 145.148 46.6499 145.794C48.3755 149.36 52.905 149.921 55.3573 146.871C56.1001 145.948 56.4221 145.001 56.4221 143.742C56.4221 142.485 56.0999 141.537 55.3583 140.613C54.1417 139.098 52.6046 138.473 50.5919 138.676Z" fill="white"/>
</svg>
