<svg width="101" height="152" viewBox="0 0 101 152" fill="none" xmlns="http://www.w3.org/2000/svg">
<path fill-rule="evenodd" clip-rule="evenodd" d="M13.8967 0.227648C13.0723 0.519434 12.3775 1.1944 12.0772 1.99522C11.8204 2.67982 11.8151 2.901 11.8151 12.8789C11.8151 24.4662 11.8071 24.3534 12.7655 26.324C13.6448 28.1319 15.0014 29.5294 16.6707 30.3473C17.1794 30.5966 20.1968 31.6667 23.3761 32.7254C26.5554 33.7842 29.2248 34.7063 29.3083 34.7748C29.4057 34.8546 29.4386 35.1335 29.4003 35.555C29.3674 35.9157 29.2869 36.7812 29.2215 37.4783C29.1561 38.1755 29.0404 39.4303 28.9645 40.2669C28.8885 41.1035 28.7698 42.3013 28.7006 42.9287C28.6315 43.5561 28.52 44.6969 28.4527 45.4638C28.3854 46.2306 28.2757 47.4855 28.2086 48.2524C28.1416 49.0192 27.9966 50.5307 27.8862 51.6113C27.7758 52.6919 27.628 54.2319 27.5578 55.0337C27.3509 57.3936 27.2099 58.9034 27.0017 60.9911C26.8938 62.0716 26.7461 63.6117 26.6731 64.4134C26.4155 67.2486 26.3047 68.4283 26.1077 70.4342C25.9123 72.4245 25.7584 74.0588 25.5413 76.455C25.4381 77.5923 25.1772 80.3249 24.8877 83.2997C24.8164 84.0317 24.7082 85.201 24.6469 85.8981C24.4755 87.853 24.1307 91.277 24.0344 91.9823L23.9478 92.616L23.3761 92.6461C21.5172 92.7439 19.6588 93.4534 18.1344 94.6471C14.5517 97.4524 13.7859 102.964 16.4682 106.639C16.704 106.962 16.8961 107.333 16.8951 107.463C16.8937 107.654 15.219 109.955 11.7291 114.56C8.20946 119.204 7.29512 120.496 6.80359 121.516C5.52667 124.166 5.62348 127.013 7.08143 129.681C7.32332 130.124 7.35216 130.262 7.21915 130.338C6.52638 130.738 5.23904 131.758 4.40944 132.564C2.77756 134.151 1.31377 136.464 0.732287 138.374C0.0440891 140.635 0 141.066 0 145.547C0 149.491 0.0143622 149.752 0.260446 150.274C0.575516 150.943 0.891842 151.253 1.69222 151.677L2.30025 152H50.5H98.6997L99.3078 151.677C100.108 151.253 100.424 150.943 100.74 150.274C100.986 149.752 101 149.491 101 145.547C101 141.068 100.959 140.661 100.27 138.374C99.5202 135.885 97.2579 132.798 94.9977 131.179C94.5849 130.884 94.1132 130.542 93.9494 130.419L93.6516 130.196L94.0597 129.405C94.779 128.011 95.0679 126.802 95.0571 125.231C95.0471 123.773 94.7189 122.436 94.0668 121.198C93.6618 120.429 92.5508 118.891 89.4156 114.759C88.7646 113.901 88.1463 113.074 88.0415 112.921C87.9367 112.768 87.0078 111.523 85.977 110.155C84.9463 108.788 84.1031 107.576 84.1031 107.463C84.1031 107.349 84.2965 106.986 84.5329 106.654C85.0575 105.919 85.5266 104.976 85.7466 104.214C85.8373 103.9 85.9619 103.478 86.0237 103.276C86.1949 102.715 86.1488 100.435 85.9504 99.6508C85.6592 98.4998 85.5403 98.1759 85.1179 97.3853C83.6459 94.63 80.8025 92.8475 77.5604 92.6473C77.0523 92.616 77.0522 92.6159 76.9666 91.9823C76.8499 91.1184 76.4964 87.6023 76.355 85.8981C76.2913 85.1312 76.2084 84.2471 76.1706 83.9334C76.1329 83.6197 76.0146 82.3934 75.9078 81.2082C75.6775 78.6544 75.5039 76.8345 75.3337 75.1874C75.2653 74.5252 75.1227 73.0136 75.0167 71.8285C74.8364 69.8111 74.7532 68.9267 74.4444 65.7443C74.3768 65.0472 74.2351 63.5071 74.1296 62.322C74.024 61.1368 73.8823 59.6538 73.8146 59.0264C73.747 58.399 73.6318 57.2297 73.5586 56.4279C73.3077 53.6787 73.0493 50.9133 72.9249 49.6466C72.8564 48.9495 72.7393 47.6946 72.6645 46.8581C72.5896 46.0215 72.4494 44.5385 72.3526 43.5625C72.2559 42.5865 72.1139 41.1035 72.0371 40.2669C71.9603 39.4303 71.8439 38.1755 71.7785 37.4783C71.7131 36.7812 71.6326 35.9157 71.5997 35.555C71.5614 35.1334 71.5942 34.855 71.6917 34.7757C71.7752 34.7079 73.0154 34.2702 74.4478 33.8031C75.8802 33.336 77.1665 32.9064 77.3063 32.8485C77.6917 32.6887 79.1623 32.1993 79.5931 32.0875C80.4586 31.8628 83.7059 30.6663 84.4786 30.2873C85.7648 29.6567 87.4659 27.9093 88.1578 26.5081C89.1976 24.4023 89.1779 24.6635 89.1816 12.912L89.1849 2.54204L88.8593 1.85542C88.4826 1.06093 87.8512 0.491676 87.0414 0.216368C86.1928 -0.0721227 74.2638 -0.0721227 73.4152 0.216368C72.6382 0.480522 71.9975 1.03735 71.6368 1.76187C71.3378 2.36243 71.3348 2.40844 71.2965 7.15485L71.2576 11.9422L68.3109 11.9081L65.3642 11.8741L65.3006 6.99412C65.2296 1.54259 65.2295 1.54132 64.3066 0.782321C63.3456 -0.00798597 63.9039 0.0226869 50.5 0.0226869C37.0961 0.0226869 37.6544 -0.00798597 36.6934 0.782321C35.7705 1.54132 35.7704 1.54259 35.6994 6.99412L35.6358 11.8741L32.6891 11.9081L29.7424 11.9422L29.7035 7.15485C29.6652 2.40844 29.6622 2.36243 29.3632 1.76187C29.0025 1.03735 28.3618 0.480522 27.5848 0.216368C26.7595 -0.0641372 14.6934 -0.0542518 13.8967 0.227648ZM17.7862 14.5231C17.7862 22.6323 17.7985 23.0995 18.027 23.6314C18.462 24.6438 19.1095 25.0556 21.5975 25.9021C22.8203 26.3181 23.9923 26.7049 24.2019 26.7617C24.7234 26.9032 29.6033 28.529 29.9189 28.6665C30.0586 28.7274 30.8019 28.981 31.5707 29.2301L32.9684 29.683H50.5H68.0316L69.4293 29.2301C70.1981 28.981 70.9414 28.7313 71.0811 28.6753C71.5032 28.5058 73.7223 27.7623 74.1302 27.6537C74.4928 27.5571 75.6087 27.1829 78.005 26.3542C78.599 26.1488 79.2564 25.9351 79.466 25.8795C81.3924 25.3674 82.5444 24.6288 82.973 23.6314C83.2015 23.0995 83.2138 22.6323 83.2138 14.5231V5.97541L80.2601 6.0095L77.3063 6.04347L77.2428 10.8601C77.1984 14.2194 77.1329 15.7802 77.0261 16.0187C76.7545 16.625 75.9759 17.3655 75.3607 17.6024C74.8141 17.8128 74.2302 17.8315 68.2226 17.8315C61.7575 17.8315 61.6739 17.8282 61.1717 17.5575C60.5586 17.2268 59.9137 16.5752 59.6867 16.057C59.5629 15.7746 59.5037 14.4378 59.4566 10.8601L59.3931 6.04347H50.5H41.6069L41.5434 10.8601C41.4963 14.4378 41.4371 15.7746 41.3133 16.057C41.0863 16.5752 40.4414 17.2268 39.8283 17.5575C39.3261 17.8282 39.2425 17.8315 32.7774 17.8315C26.7698 17.8315 26.1859 17.8128 25.6393 17.6024C25.0241 17.3655 24.2455 16.625 23.9738 16.0187C23.8671 15.7802 23.8016 14.2194 23.7572 10.8601L23.6937 6.04347L20.7399 6.0095L17.7862 5.97541V14.5231ZM35.3882 35.7983C35.3609 35.8858 35.2768 36.5847 35.2012 37.3516C35.1255 38.1184 34.9787 39.6014 34.8746 40.6471C34.6881 42.5244 34.5721 43.7562 34.3023 46.7313C34.2264 47.5679 34.083 49.0794 33.9836 50.0903C33.8842 51.1011 33.7419 52.6127 33.6673 53.4492C33.5929 54.2858 33.4775 55.5122 33.4111 56.1744C33.2777 57.504 32.9813 60.6368 32.7753 62.8924C32.7021 63.6941 32.5862 64.8919 32.5174 65.5542C32.4487 66.2165 32.3078 67.6995 32.2041 68.8498C32.0112 70.9925 31.8408 72.8085 31.6331 74.9339C31.5684 75.5962 31.4276 77.1078 31.3203 78.2929C31.2129 79.478 31.0703 80.9896 31.0033 81.6519C30.8528 83.142 30.6749 85.0146 30.4256 87.736C30.3203 88.8863 30.169 90.3774 30.0895 91.0497C30.0098 91.722 29.98 92.3637 30.0232 92.4757C30.0946 92.6617 31.8813 92.6794 50.5 92.6794C69.1187 92.6794 70.9054 92.6617 70.9768 92.4757C71.02 92.3637 70.9902 91.722 70.9105 91.0497C70.831 90.3774 70.6797 88.8863 70.5743 87.736C70.3288 85.0546 70.1494 83.1635 69.9972 81.6519C69.9305 80.9896 69.7896 79.5066 69.6841 78.3563C69.4438 75.7356 69.2629 73.8199 69.1094 72.2721C69.0437 71.6098 68.9037 70.0983 68.7983 68.9131C68.6927 67.728 68.5505 66.2165 68.4821 65.5542C68.4137 64.8919 68.2979 63.6941 68.2247 62.8924C68.0111 60.5524 67.7194 57.4748 67.5881 56.1744C67.5212 55.5122 67.404 54.2573 67.3276 53.3859C67.2513 52.5144 67.1102 51.0314 67.0145 50.0903C66.9185 49.1491 66.7783 47.6946 66.7027 46.8581C66.2728 42.0953 65.9507 38.7462 65.7582 37.0347L65.6085 35.7038L50.5231 35.6716C38.5171 35.646 35.4276 35.6718 35.3882 35.7983ZM23.1855 98.6273C22.499 98.7943 21.8378 99.1746 21.5003 99.5966C21.0879 100.112 20.7248 100.987 20.7147 101.489C20.7018 102.121 21.1246 103.103 21.6263 103.607C22.5612 104.544 19.9911 104.467 50.5 104.467C81.0978 104.467 78.4448 104.55 79.3951 103.573C79.8958 103.058 80.2918 102.166 80.2918 101.552C80.2918 100.535 79.526 99.3587 78.5487 98.8744L77.9415 98.5734L50.7541 98.5541C35.801 98.5433 23.3952 98.5762 23.1855 98.6273ZM17.3198 116.983C14.6066 120.59 12.2539 123.798 12.0914 124.113C11.8596 124.562 11.8063 124.836 11.8437 125.389C11.9294 126.657 12.6547 127.634 13.8338 128.07C14.381 128.272 16.7912 128.287 50.4638 128.292C90.5619 128.298 87.2237 128.373 88.1969 127.439C89.1451 126.529 89.4451 125.206 88.9398 124.163C88.739 123.748 88.0682 122.763 87.5693 122.15C87.5125 122.08 86.677 120.968 85.7127 119.678C84.7483 118.388 83.8912 117.247 83.808 117.143C83.7248 117.038 82.5503 115.484 81.1979 113.689L78.7388 110.425H50.4958H22.2528L17.3198 116.983ZM31.6928 116.584C30.12 117.141 29.288 118.976 29.9218 120.489C30.4483 121.746 31.924 122.514 33.2467 122.219C34.6046 121.915 35.4591 120.901 35.5494 119.485C35.6355 118.138 34.8717 117.023 33.5559 116.576C32.8658 116.341 32.3717 116.343 31.6928 116.584ZM43.4491 116.646C43.1346 116.788 42.6914 117.083 42.4642 117.302C42.0442 117.707 41.5434 118.817 41.5434 119.343C41.5434 119.946 41.9731 120.874 42.4929 121.392C43.4942 122.391 42.7346 122.34 56.4072 122.34C70.1468 122.34 69.4687 122.385 70.4352 121.393C71.586 120.212 71.5699 118.454 70.3977 117.285C69.4474 116.337 70.1551 116.382 56.3532 116.385C44.2259 116.388 44.0112 116.392 43.4491 116.646ZM14.0384 134.209C13.4051 134.283 12.276 134.515 12.0057 134.627C10.843 135.105 10.5274 135.261 9.90562 135.662C8.95673 136.273 7.95588 137.291 7.30833 138.303C6.2089 140.022 5.81594 141.653 5.87134 144.268L5.90755 145.979H50.5H95.0925L95.1286 144.268C95.177 141.984 94.9175 140.596 94.1687 139.135C93.0385 136.929 91.5723 135.653 88.9943 134.63C87.8903 134.193 88.4117 134.199 51.0082 134.181C30.8844 134.172 14.248 134.184 14.0384 134.209Z" fill="white"/>
</svg>
