<svg width="136" height="136" viewBox="0 0 136 136" fill="none" xmlns="http://www.w3.org/2000/svg">
<path fill-rule="evenodd" clip-rule="evenodd" d="M10.2607 0.131851C9.29856 0.316623 8.42058 0.561633 7.71627 0.841837C7.20132 1.0468 6.95671 1.17054 6.07793 1.67072C4.83003 2.38104 3.36977 3.70693 2.40156 5.00891C1.77315 5.85403 0.787244 7.66532 0.787244 7.97474C0.787244 8.07152 0.743371 8.19887 0.689801 8.25776C0.636231 8.31675 0.528748 8.61873 0.450931 8.92894C-0.0157488 10.7899 0.00230432 8.41929 4.87378e-05 68.0726C-0.00153017 106.59 0.035231 125.131 0.113612 125.489C0.444281 127 0.602514 127.608 0.690256 127.705C0.7436 127.764 0.787473 127.891 0.787698 127.987C0.788375 128.218 1.58809 129.792 2.07428 130.52C2.84377 131.672 4.06054 132.92 5.24697 133.773C5.91428 134.253 7.75575 135.212 8.00973 135.212C8.10649 135.212 8.23371 135.256 8.29269 135.309C8.38957 135.397 8.99744 135.555 10.508 135.886C10.8663 135.965 29.4223 136.001 67.9689 136C117.135 135.998 125.026 135.976 125.823 135.835C128.747 135.317 131.33 133.793 133.253 131.451C134.12 130.395 135.031 128.747 135.383 127.598C135.497 127.226 135.63 126.794 135.678 126.639C136.018 125.552 136.025 124.257 135.981 67.5303C135.949 26.8761 135.901 10.3463 135.813 9.94417C135.579 8.87344 135.432 8.36458 135.326 8.25776C135.268 8.19876 135.22 8.07964 135.22 7.9929C135.22 7.69995 134.337 6.0018 133.753 5.16999C132.005 2.68267 129.057 0.755428 126.085 0.15757C125.129 -0.0347597 11.2601 -0.0600273 10.2607 0.131851ZM11.614 7.48483C11.459 7.51168 11.0276 7.63926 10.6554 7.76853C9.1241 8.30029 8.0157 9.57767 7.62639 11.2591C7.44741 12.0324 7.4368 14.9599 7.46612 55.2911L7.4976 98.4948H68.0035H128.509L128.538 55.0858L128.566 11.6768L128.276 10.8105C127.781 9.33424 126.81 8.31202 125.352 7.73176L124.675 7.46249L68.2855 7.44929C37.2713 7.44208 11.7691 7.45809 11.614 7.48483ZM24.1325 15.0986C23.2993 15.4513 23.0155 15.6299 22.5536 16.092C21.3963 17.2495 21.4294 17.0022 21.4275 24.5124L21.4258 30.9589L19.142 31.0126C17.5212 31.0507 16.7343 31.1141 16.4311 31.2311C15.7704 31.4858 15.0306 32.0563 14.6375 32.6142C13.8957 33.6668 13.926 33.2572 13.926 42.2059C13.926 50.7264 13.9297 50.7971 14.4194 51.625C14.7255 52.1426 15.4997 52.8797 15.956 53.0879C16.8033 53.4746 17.3054 53.5414 19.3676 53.542L21.4258 53.5427L21.4275 70.717C21.4292 88.8599 21.4126 88.2231 21.9048 89.1054C22.1242 89.4989 22.9166 90.3181 23.2449 90.4908C24.8374 91.3285 26.5894 91.1038 27.7845 89.9085C28.1536 89.5393 28.5576 88.9282 28.7079 88.5117C28.7659 88.3513 28.8347 80.7627 28.8676 70.9144L28.9256 53.5991L31.1812 53.5334C33.3888 53.4693 33.7451 53.416 34.4699 53.0428C34.9273 52.8074 35.6893 52.0458 35.9266 51.5868C36.4133 50.6459 36.4227 50.4696 36.4235 42.2623C36.4242 34.2265 36.4152 34.0425 35.9706 33.0689C35.746 32.577 34.8452 31.6623 34.3954 31.4694C34.2403 31.4029 33.9612 31.2824 33.7751 31.2016C33.5546 31.1059 32.651 31.0322 31.1812 30.9901L28.9256 30.9256L28.8692 24.3266C28.8129 17.7388 28.8124 17.7267 28.5537 17.1636C28.2758 16.5586 27.5335 15.7209 27.0501 15.4666C26.144 14.9899 24.792 14.8193 24.1325 15.0986ZM52.6656 15.102C52.0998 15.283 51.1532 15.9269 50.8309 16.3499C50.6791 16.5493 50.4335 16.9408 50.285 17.22L50.0153 17.7276L49.9589 37.7502L49.9025 57.7728L47.7033 57.8007C46.4938 57.816 45.4026 57.8724 45.2786 57.9261C45.1545 57.9797 44.8622 58.1061 44.629 58.2071C44.0256 58.4682 43.2225 59.2474 42.872 59.9116L42.5719 60.4801V69.0532V77.6262L42.8723 78.1955C43.3695 79.1379 44.235 79.8683 45.1789 80.1423C45.4606 80.2241 46.4358 80.2778 47.66 80.2788C48.7693 80.2798 49.7354 80.3178 49.8068 80.3634C49.8989 80.4223 49.9506 81.5747 49.9851 84.338C50.0324 88.1281 50.0404 88.2429 50.2931 88.7373C51.0383 90.1961 52.252 90.99 53.737 90.99C55.3823 90.99 56.8805 89.8688 57.321 88.3074C57.3856 88.0786 57.4684 86.1908 57.5049 84.1124L57.5715 80.3335L59.8834 80.2771C62.0029 80.2254 62.2444 80.1986 62.7834 79.9547C63.4808 79.6393 64.3112 78.7929 64.6564 78.0455C64.9019 77.5138 64.9021 77.5074 64.9021 69.0532C64.9021 60.6495 64.9005 60.5894 64.6611 60.0715C64.2353 59.1504 63.3649 58.3435 62.4531 58.0246C62.2493 57.9533 61.0676 57.8675 59.8271 57.8338L57.5715 57.7728L57.5114 37.9194C57.4692 23.9961 57.4143 17.9417 57.3274 17.6499C56.8721 16.1196 55.474 15.0549 53.8498 15.0016C53.4156 14.9874 52.8827 15.0325 52.6656 15.102ZM81.3115 15.0971C81.1564 15.1619 80.8433 15.2913 80.6158 15.3845C79.6714 15.7713 78.8466 16.922 78.6148 18.1759C78.536 18.6026 78.492 21.0106 78.492 24.8995V30.9584L76.2646 31.0057C74.7531 31.0377 73.9285 31.101 73.6989 31.2025C73.5128 31.2848 73.1986 31.4222 73.0005 31.5077C72.4804 31.7324 71.7709 32.502 71.4141 33.2288L71.105 33.8585V42.2623V50.6662L71.4313 51.3311C71.7936 52.0689 72.3948 52.7298 72.9775 53.0306C73.7783 53.4439 74.4388 53.54 76.4902 53.5413L78.492 53.5427V70.3296C78.492 81.4874 78.5314 87.3411 78.6097 87.786C78.9444 89.6895 80.4267 90.9871 82.2717 90.9917C83.755 90.9954 84.9634 90.2347 85.6735 88.8501L85.9918 88.2297L86.0224 70.8944L86.053 53.5593L88.3343 53.5227C90.5253 53.4877 90.6409 53.4744 91.2496 53.189C92.1098 52.7855 92.7644 52.1664 93.1301 51.4099L93.4352 50.779V42.2623V33.7457L93.1033 33.0905C92.703 32.3005 92.1023 31.7338 91.2501 31.3429C90.649 31.0671 90.4964 31.0493 88.3377 31.0055L86.0598 30.959L86.0243 24.3433C85.9851 17.0622 86.0278 17.5049 85.2648 16.4551C84.8708 15.9127 83.9701 15.2994 83.272 15.0979C82.7105 14.9358 81.6981 14.9354 81.3115 15.0971ZM109.901 15.0738C109.777 15.1259 109.498 15.2353 109.281 15.317C108.722 15.5274 107.76 16.5 107.454 17.1644L107.194 17.7276L107.138 37.7502L107.081 57.7728L104.769 57.8355C102.329 57.9017 102.158 57.9293 101.443 58.3707C100.543 58.9255 99.9586 59.7711 99.7011 60.8884C99.6305 61.1945 99.5862 64.3029 99.5844 69.0577C99.5821 75.4329 99.6096 76.84 99.7465 77.3658C99.9151 78.0134 100.249 78.7 100.58 79.0809C100.81 79.3454 101.795 79.9819 102.176 80.1118C102.331 80.1647 103.498 80.2363 104.769 80.2708L107.081 80.3335L107.138 84.2816C107.192 88.1001 107.203 88.2482 107.453 88.7938C107.738 89.4125 108.469 90.2297 108.999 90.5203C110.117 91.1343 111.498 91.1552 112.608 90.5751C113.307 90.2095 114.168 89.2269 114.416 88.5117C114.47 88.3566 114.541 86.4531 114.576 84.2816L114.638 80.3335L116.95 80.2669C118.221 80.2303 119.388 80.1633 119.544 80.1179C120.077 79.9619 121.067 79.2047 121.411 78.6893C122.164 77.5617 122.147 77.8103 122.112 68.8798C122.081 60.828 122.081 60.8177 121.829 60.195C121.444 59.2443 120.481 58.3179 119.544 57.9953C119.388 57.9419 118.221 57.8701 116.95 57.8355L114.638 57.7728L114.581 37.8066C114.541 23.4211 114.489 17.744 114.398 17.4955C114.091 16.662 113.412 15.8439 112.694 15.443C111.92 15.0112 110.498 14.8233 109.901 15.0738ZM21.4258 42.2623V45.9849H25.1475H28.8692V42.2623V38.5398H25.1475H21.4258V42.2623ZM78.5437 38.6803C78.5135 38.7593 78.5021 40.4224 78.5185 42.3762L78.5484 45.9285L82.2999 45.9581L86.0512 45.9879L86.0216 42.292L85.9918 38.5962L82.2953 38.5665C79.385 38.5431 78.5872 38.5672 78.5437 38.6803ZM50.0983 65.3682C49.9872 65.4388 49.9623 66.2654 49.9855 69.1172L50.0153 72.7757L53.5114 72.8073C55.4343 72.8246 57.1218 72.811 57.2613 72.7769L57.5151 72.715V69.0631C57.5151 65.8371 57.4943 65.4032 57.3367 65.3427C57.0685 65.2397 50.2628 65.2637 50.0983 65.3682ZM107.215 65.3479C107.172 65.3901 107.138 67.0913 107.138 69.1284V72.8321H110.861H114.584L114.555 69.0814L114.525 65.3306L110.908 65.3009C108.919 65.2845 107.257 65.3057 107.215 65.3479ZM7.51654 106.071C7.47504 106.113 7.442 110.161 7.4429 115.068C7.44425 122.548 7.47154 124.103 7.61161 124.697C8.03814 126.507 9.10402 127.682 10.8505 128.268L11.7102 128.557H67.9748C118.416 128.557 124.303 128.539 124.852 128.382C125.825 128.105 126.429 127.757 127.097 127.088C127.771 126.414 128.12 125.807 128.393 124.831C128.545 124.288 128.564 123.038 128.538 115.13L128.509 106.053L68.0507 106.024C34.7982 106.009 7.55793 106.03 7.51654 106.071ZM42.2335 113.712C40.4204 114.412 39.3204 116.221 39.6939 117.887C40.0288 119.383 40.8611 120.333 42.2899 120.852C42.8396 121.052 50.2717 121.06 50.8531 120.862C53.3299 120.016 54.2879 117.307 52.864 115.176C52.4628 114.575 51.5716 113.916 50.8635 113.695C50.2562 113.505 42.7299 113.52 42.2335 113.712ZM63.6615 113.712C61.8484 114.412 60.7485 116.221 61.1219 117.887C61.4568 119.383 62.2891 120.333 63.7179 120.852C64.2676 121.052 71.6998 121.06 72.2811 120.862C74.7579 120.016 75.7159 117.307 74.292 115.176C73.8908 114.575 72.9996 113.916 72.2915 113.695C71.6842 113.505 64.1579 113.52 63.6615 113.712ZM85.0896 113.712C83.2764 114.412 82.1765 116.221 82.5499 117.887C82.8848 119.383 83.7172 120.333 85.1459 120.852C85.7013 121.054 93.0759 121.06 93.7195 120.859C95.3247 120.358 96.5556 118.586 96.393 117.01C96.3221 116.324 95.9063 115.336 95.4711 114.821C95.1346 114.423 94.3507 113.92 93.7174 113.697C93.1811 113.508 85.5838 113.521 85.0896 113.712Z" fill="white"/>
</svg>
