<svg width="115" height="152" viewBox="0 0 115 152" fill="none" xmlns="http://www.w3.org/2000/svg">
<path fill-rule="evenodd" clip-rule="evenodd" d="M38.6684 0.0496731C35.6214 0.210575 31.9345 0.719677 31.5122 1.03821C31.3741 1.1423 30.3007 1.48145 29.1268 1.79169C27.9529 2.10168 26.71 2.50066 26.3647 2.67816C26.0195 2.8554 24.5315 3.58072 23.058 4.28969C21.5848 4.99867 20.2432 5.74309 20.077 5.94347C19.9108 6.14409 19.6474 6.30951 19.4917 6.31102C19.2155 6.31353 16.6332 8.11865 15.7559 8.92266C15.1113 9.51322 15.1894 10.9219 15.9103 11.7005C16.3369 12.1616 16.7608 12.3421 17.4169 12.3421C17.9188 12.3421 18.3296 12.2533 18.3296 12.145C18.3296 12.0364 18.6967 11.7372 19.1457 11.48C19.5947 11.2228 20.1877 10.813 20.464 10.5691C20.7402 10.3255 21.4746 9.86696 22.0961 9.55069C22.7175 9.23416 23.2825 8.89978 23.3516 8.80777C23.5818 8.50029 27.225 6.84275 28.6246 6.40857C29.3842 6.173 30.1211 5.89167 30.2625 5.78357C30.4039 5.67571 31.7598 5.32952 33.2756 5.01425C35.6254 4.52577 36.8096 4.44029 41.305 4.434C46.8921 4.42646 50.4795 4.85939 52.6043 5.7979C53.1567 6.04202 53.9477 6.32083 54.362 6.41787C54.7763 6.51492 56.045 7.03885 57.1818 7.58265C58.3182 8.1262 59.3635 8.57094 59.5044 8.57094C59.6453 8.57094 59.7605 8.67804 59.7605 8.80903C59.7605 8.94001 60.3252 9.33121 61.0155 9.6784C61.7058 10.0256 62.5803 10.5973 62.959 10.9488C63.3376 11.3002 63.7457 11.5879 63.8657 11.5879C64.3523 11.5879 70.0412 17.2307 70.9675 18.6326C71.3313 19.1827 71.7009 19.633 71.789 19.633C71.8772 19.633 72.2292 20.167 72.5717 20.8196C72.9139 21.4723 73.3637 22.1988 73.5708 22.4339C73.778 22.669 74.1702 23.436 74.4421 24.1385C74.7143 24.8406 75.0159 25.4154 75.1123 25.4154C75.2087 25.4154 75.5394 26.1792 75.8475 27.1124C76.1554 28.0456 76.4886 28.866 76.5875 28.9351C76.7977 29.0819 77.4962 31.8253 77.7395 33.4605C77.8322 34.0827 78.0082 34.7195 78.1305 34.8759C78.7625 35.6827 78.7504 46.846 78.1159 48.1679C77.9833 48.4445 77.685 49.5758 77.4535 50.682C77.2218 51.7882 76.8182 53.168 76.5568 53.748C76.2957 54.328 76.0818 54.9246 76.0818 55.0731C76.0818 55.4706 73.6366 60.3746 73.1949 60.8634C72.9873 61.0929 72.8175 61.3968 72.8175 61.5386C72.8175 61.6804 72.535 62.1015 72.1898 62.4744C71.8445 62.8475 71.5621 63.2196 71.5621 63.3013C71.5621 63.383 71.0759 64.0276 70.4818 64.7338C69.8877 65.44 69.1545 66.4466 68.8525 66.9703L68.3033 67.9229L68.9617 68.9188C69.4518 69.6604 69.7878 69.9141 70.2772 69.9113C71.502 69.9051 71.9364 69.6179 73.1942 67.9825C73.8847 67.0845 74.6545 66.1083 74.9049 65.8131C75.155 65.5179 75.5997 64.8492 75.8927 64.3273C76.1857 63.8053 76.5004 63.3782 76.592 63.3782C76.6837 63.3782 76.9687 62.8973 77.225 62.3097C77.4814 61.7222 77.8872 60.9803 78.1264 60.6612C78.366 60.3424 78.7474 59.5221 78.9742 58.8385C79.2009 58.1552 79.4739 57.5958 79.5808 57.5958C79.6875 57.5958 80.0305 56.7189 80.3429 55.6474C80.6552 54.5759 81.057 53.3595 81.2355 52.9447C81.7694 51.705 82.3399 48.6763 82.5182 46.136C82.6103 44.8244 82.7815 43.6918 82.8991 43.6192C83.1778 43.4467 83.178 39.2429 82.8993 39.2429C82.782 39.2429 82.6166 38.1963 82.5314 36.9174C82.367 34.445 81.7244 30.6625 81.3523 29.9764C81.2293 29.7494 80.8451 28.6586 80.4988 27.5524C80.1523 26.4462 79.3423 24.5229 78.6982 23.2784C78.0542 22.0339 77.3521 20.6763 77.1382 20.2615C76.924 19.8467 76.6824 19.4507 76.6013 19.3815C76.5202 19.3124 76.127 18.7518 75.7277 18.1356C75.3285 17.5194 74.7364 16.7287 74.412 16.3782C74.0873 16.028 73.8219 15.6476 73.8219 15.5332C73.8219 15.4188 73.4548 14.962 73.0059 14.5183C72.5569 14.0745 71.6813 13.1489 71.0599 12.4613C69.7677 11.0312 67.4529 8.98275 66.3119 8.25944C65.885 7.98868 65.5357 7.68548 65.5357 7.58517C65.5357 7.48511 65.0275 7.14897 64.4065 6.83823C63.7853 6.52774 63.1335 6.14007 62.9582 5.97665C62.7827 5.81348 62.0761 5.3969 61.3881 5.05121C60.7001 4.70552 60.1035 4.34953 60.0621 4.26028C60.0209 4.17078 59.2864 3.83867 58.43 3.52189C57.5737 3.20511 56.8164 2.87174 56.7474 2.78073C56.5939 2.57835 53.4603 1.63129 52.1649 1.39547C51.6471 1.30119 51.2233 1.13651 51.2233 1.02967C51.2233 0.450419 43.0963 -0.183886 38.6684 0.0496731ZM39.7984 14.5188C37.7143 14.696 34.8206 15.1531 34.4294 15.3665C34.206 15.4887 33.1192 15.8887 32.0144 16.2558C30.9096 16.6226 29.9491 17.003 29.8801 17.101C29.811 17.1991 29.1896 17.5485 28.499 17.8774C27.8085 18.2065 27.0934 18.6235 26.9101 18.8046C26.7268 18.9853 26.3313 19.2634 26.0313 19.4223C24.878 20.0332 20.9403 23.9079 20.1167 25.2422C19.8018 25.7523 19.4684 26.1696 19.376 26.1696C19.2833 26.1696 18.928 26.7069 18.5865 27.3638C18.2448 28.0207 17.8937 28.6146 17.8064 28.6837C17.5533 28.8841 16.6398 31.0711 16.4522 31.9259C16.358 32.355 16.1946 32.7062 16.0891 32.7062C15.9834 32.7062 15.6818 33.6963 15.4184 34.9061C14.746 37.9972 14.7395 45.0419 15.4066 47.9165C15.6632 49.0227 15.9613 50.0409 16.0688 50.1792C16.1762 50.3175 16.5765 51.2226 16.9582 52.1905C17.3398 53.1584 17.7313 54.0069 17.8282 54.076C17.9251 54.1452 18.1986 54.6161 18.4361 55.1224C18.6736 55.6285 19.2944 56.5054 19.8156 57.0708C20.5451 57.8618 20.9486 58.0986 21.5668 58.0986C22.5182 58.0986 23.6027 57.1427 23.6027 56.3038C23.6027 55.7271 22.663 53.5541 22.3083 53.311C21.851 52.9978 20.1202 49.0338 19.837 47.6518C19.6685 46.8294 19.4018 45.9978 19.2441 45.8037C18.8482 45.3164 18.8534 37.5235 19.2502 36.7047C19.4114 36.3723 19.6712 35.5346 19.8279 34.8432C20.1451 33.4429 21.9577 29.58 22.6523 28.8247C22.8988 28.5567 23.1005 28.2478 23.1005 28.1379C23.1005 27.7852 25.9258 24.7723 27.4213 23.5301C28.3323 22.7733 31.0622 21.162 32.1399 20.7449C32.7614 20.5043 33.3829 20.2225 33.521 20.1184C33.6591 20.0143 34.5065 19.7242 35.4042 19.4736C36.689 19.1148 37.9709 19.0165 41.4305 19.0112C45.781 19.0044 47.9276 19.2817 49.0889 20.0003C49.3651 20.1712 50.0431 20.4548 50.5955 20.6308C51.1479 20.8065 52.1839 21.333 52.8978 21.8001C53.6119 22.2675 54.312 22.6499 54.4536 22.6499C54.9108 22.6499 59.9024 27.8126 60.2441 28.6387C60.4259 29.0782 60.6602 29.4379 60.7644 29.4379C60.8689 29.4379 61.2084 30.032 61.5187 30.7578C61.8293 31.4836 62.1595 32.1343 62.2524 32.2034C62.6135 32.4719 63.7052 36.7396 64.0214 39.1172C64.2376 40.7431 64.0625 45.2767 63.7836 45.2767C63.6902 45.2767 63.4745 46.0405 63.3042 46.9737C63.1343 47.907 62.6627 49.3782 62.2567 50.2428C61.8504 51.1074 61.5182 51.9275 61.5182 52.0655C61.5182 52.2033 61.3203 52.5251 61.0788 52.7803C60.2888 53.6145 59.5094 55.2894 59.5094 56.1527C59.5094 57.7064 60.8568 58.5104 62.3225 57.8314C62.8673 57.5789 64.0929 55.9644 64.7917 54.5789C64.966 54.2332 65.1877 53.8938 65.2844 53.8246C65.3808 53.7555 65.7632 52.907 66.1341 51.9391C66.5047 50.9711 66.9118 49.9917 67.0383 49.7624C68.1695 47.7159 68.5574 39.4513 67.7087 35.4733C67.4584 34.2989 67.1684 33.2242 67.0647 33.0849C66.961 32.9458 66.563 31.955 66.1803 30.8835C65.7979 29.812 65.4004 28.9351 65.2972 28.9351C65.1942 28.9351 64.8997 28.4685 64.6428 27.8983C64.0066 26.4854 62.5407 24.5701 60.4779 22.456C57.6448 19.5528 53.8266 17.1136 50.5322 16.1024C49.6004 15.8163 48.6442 15.4772 48.4077 15.3487C47.5269 14.8703 41.9678 14.3343 39.7984 14.5188ZM9.29017 15.3112C9.29017 15.4234 8.97279 15.8475 8.58459 16.254C8.19665 16.6605 7.60933 17.4457 7.27964 17.9988C6.94995 18.5519 6.6047 19.061 6.5123 19.1301C6.41989 19.1993 6.08819 19.7649 5.77483 20.3872C5.46146 21.0094 5.12851 21.5751 5.0351 21.6442C4.94144 21.7134 4.60447 22.4203 4.28633 23.2155C3.96819 24.0108 3.6257 24.6611 3.52526 24.6611C3.42507 24.6611 3.02658 25.7078 2.63989 26.9867C2.2532 28.2656 1.85195 29.4254 1.748 29.5636C1.463 29.9433 0.501803 34.9038 0.501803 35.9947C0.501803 36.5204 0.388809 37.0204 0.250707 37.1059C-0.0598996 37.298 -0.0937979 45.7795 0.216055 45.7795C0.335075 45.7795 0.508338 46.5212 0.600993 47.4275C0.806892 49.4385 1.48987 52.8524 1.75528 53.1961C1.86224 53.3344 2.25521 54.4376 2.62909 55.6474C3.00272 56.8574 3.39344 57.8472 3.49764 57.8472C3.60159 57.8472 3.81954 58.2917 3.982 58.835C4.14471 59.3783 4.7275 60.5639 5.2774 61.4703C5.82705 62.3763 6.27702 63.2329 6.27702 63.3737C6.27702 63.5145 6.36916 63.6296 6.48191 63.6296C6.59465 63.6296 6.92961 64.0623 7.22666 64.5913C7.52345 65.1202 8.10751 65.9406 8.52433 66.414C8.94115 66.8876 9.2839 67.357 9.28616 67.4571C9.29143 67.7014 14.4904 72.8473 15.7649 73.8695C16.3216 74.316 17.1831 74.9212 17.679 75.2143C18.175 75.5072 18.5807 75.8222 18.5807 75.9142C18.5807 76.0673 20.6297 77.1054 21.2172 77.2502C21.9931 77.441 23.048 76.9342 23.339 76.2302C23.8312 75.0411 23.4738 74.0385 22.3283 73.3939C21.7862 73.0889 21.3428 72.7545 21.3428 72.6509C21.3428 72.5476 21.1138 72.39 20.8341 72.3012C20.5543 72.2122 19.3395 71.3361 18.1348 70.3541C15.0312 67.8244 12.9343 65.5876 11.1234 62.8754C9.38158 60.2668 9.06143 59.7308 8.64586 58.7271C8.41686 58.174 8.12785 57.6574 8.00381 57.5792C7.87952 57.501 7.54304 56.7656 7.25553 55.945C6.96803 55.1244 6.63257 54.331 6.50978 54.1819C6.20897 53.8158 5.02154 48.7359 5.02154 47.8139C5.02154 47.4094 4.88042 47.0313 4.70767 46.9737C4.28407 46.8322 4.25419 35.9751 4.67603 35.4476C4.83121 35.2535 5.03986 34.529 5.13954 33.8376C5.39215 32.0878 6.18763 28.9718 6.47438 28.6085C6.60545 28.4426 6.90677 27.711 7.14381 26.9834C7.38109 26.2556 7.71279 25.5202 7.88077 25.3493C8.04901 25.178 8.38749 24.5292 8.63281 23.9069C8.87838 23.2847 9.26934 22.5493 9.50185 22.2728C9.73437 21.9962 10.1366 21.374 10.3963 20.89C10.6556 20.406 11.1212 19.7272 11.4308 19.3815C11.7401 19.0359 12.1396 18.3364 12.3181 17.8276C12.6172 16.9753 12.5946 16.831 12.0337 16.0066C11.4966 15.2169 11.2982 15.1109 10.3573 15.1093C9.77052 15.1083 9.29017 15.1994 9.29017 15.3112ZM39.6992 29.1948C38.9542 29.3032 38.1067 29.5 37.816 29.632C34.3855 31.1913 34.663 31.0135 32.8244 32.8287C32.165 33.4796 31.4451 34.3688 31.2247 34.8048C31.0042 35.2407 30.6813 35.7672 30.5068 35.9746C30.3323 36.182 29.9788 37.0305 29.7211 37.8601C29.2707 39.3098 29.2523 41.1888 29.2523 86.1308C29.2523 134.768 29.2566 134.981 30.264 137.167C30.4551 137.582 30.8506 138.572 31.1428 139.367C31.4349 140.162 31.8112 140.954 31.9792 141.127C32.147 141.3 32.5412 141.861 32.8551 142.375C34.1181 144.442 36.7938 147.124 38.8512 148.384C39.3723 148.703 39.9395 149.102 40.112 149.27C40.2845 149.438 41.0755 149.815 41.8697 150.107C42.6639 150.4 43.6527 150.792 44.067 150.979C46.1963 151.94 47.8535 152 72.0642 152C96.2529 152 97.9121 151.94 100.061 150.984C100.476 150.8 101.549 150.346 102.447 149.976C103.345 149.606 104.136 149.219 104.205 149.116C104.274 149.012 104.67 148.754 105.084 148.541C106.526 147.802 109.415 145.032 110.934 142.933C112.312 141.028 113.703 138.051 114.127 136.096C114.36 135.026 114.652 133.954 114.776 133.714C115.073 133.139 115.076 83.5664 114.778 83.3823C114.656 83.3064 114.482 82.9321 114.393 82.5504C114.076 81.1948 113.153 79.1491 112.618 78.6129C112.319 78.3134 111.97 77.8986 111.843 77.6912C111.511 77.1494 109.504 75.5854 108.473 75.065C107.99 74.8211 107.538 74.5468 107.469 74.4558C107.234 74.1463 105.33 73.7008 103.571 73.5439C101.858 73.3911 98.282 73.9183 97.9445 74.3733C97.8659 74.4792 97.2733 74.8317 96.6277 75.1565C95.9819 75.4816 94.8387 76.3582 94.0866 77.1049C93.3348 77.8518 92.5384 78.4628 92.3167 78.4628C92.0952 78.4628 91.7384 78.1234 91.5242 77.7085C91.31 77.2937 91.0411 76.9543 90.9266 76.9543C90.8123 76.9543 90.3915 76.6494 89.9915 76.2765C88.2276 74.6323 84.8933 73.4293 82.1247 73.4383C80.8873 73.4424 77.8166 74.0905 77.5972 74.394C77.5233 74.4963 76.9679 74.7985 76.3628 75.066C75.7579 75.3332 74.6086 76.2069 73.8091 77.0073C73.0096 77.8078 72.2237 78.4628 72.0625 78.4628C71.9015 78.4628 71.1739 77.8518 70.4457 77.1051C67.7497 74.3399 63.7733 73.0296 59.982 73.6563C58.1892 73.953 55.2837 75.1653 54.7115 75.8557C54.5546 76.0452 54.2703 76.2001 54.0802 76.2001C53.7894 76.2001 53.7335 73.3134 53.7299 58.1614C53.7252 38.596 53.6717 37.7201 52.368 35.7991C52.0147 35.2784 51.7254 34.7115 51.7254 34.5393C51.7254 34.3671 51.443 34.041 51.0977 33.8145C50.7524 33.5879 50.47 33.2488 50.47 33.061C50.47 32.8729 50.1343 32.5454 49.7242 32.3329C49.3139 32.1207 48.8579 31.7217 48.7108 31.4467C48.5639 31.1714 48.3364 30.9464 48.2053 30.9464C48.0743 30.9464 47.2589 30.6027 46.3937 30.1826C45.0789 29.5445 42.2528 28.8717 41.305 28.9716C41.1668 28.9859 40.4442 29.0865 39.6992 29.1948ZM38.5338 33.7938C36.5253 34.5715 34.5673 36.5976 34.0872 38.3951C33.9255 38.9995 33.704 39.4943 33.5945 39.4943C33.3158 39.4943 33.3407 132.668 33.6196 133.211C33.7429 133.451 34.0289 134.489 34.2557 135.518C34.4822 136.548 35.0027 137.935 35.4125 138.602C35.8223 139.269 36.1575 139.888 36.1575 139.978C36.1575 140.198 36.5489 140.633 38.5773 142.663C40.6488 144.738 40.7807 144.844 42.0582 145.472C42.6106 145.744 43.1327 146.062 43.2183 146.179C43.4312 146.471 46.6553 147.349 47.5141 147.349C47.897 147.349 48.2101 147.462 48.2101 147.6C48.2101 147.916 95.8277 147.951 96.0223 147.636C96.0956 147.516 96.6501 147.351 97.2542 147.268C98.419 147.109 100.73 146.392 100.94 146.125C101.009 146.038 101.603 145.713 102.259 145.404C102.914 145.095 103.451 144.734 103.451 144.604C103.451 144.473 103.659 144.3 103.913 144.219C104.61 143.998 106.92 141.591 107.665 140.309C108.027 139.687 108.405 139.121 108.504 139.05C108.603 138.98 108.92 138.301 109.208 137.542C109.497 136.782 109.841 135.971 109.974 135.738C110.638 134.571 110.729 131.241 110.725 108.38C110.721 86.359 110.633 82.9323 110.061 82.5115C109.947 82.428 109.638 81.9337 109.373 81.4131C108.913 80.5082 107.435 79.1069 106.314 78.5136C104.59 77.6007 100.361 77.7219 98.806 78.7285C98.3917 78.997 97.7416 79.4146 97.3614 79.6567C96.9815 79.8988 96.6129 80.2749 96.5426 80.4926C96.4723 80.7101 96.1996 81.1194 95.9367 81.402C95.0167 82.3908 94.6629 84.0687 94.6629 87.4416C94.6629 91.217 94.4184 92.0959 93.2503 92.5188C92.5519 92.7717 92.2687 92.7529 91.5363 92.4049C90.4985 91.9119 90.4694 91.788 90.2956 87.1364C90.1768 83.9639 89.8358 81.9825 89.4085 81.9825C89.2937 81.9825 89.0564 81.6363 88.8814 81.2129C88.7061 80.7898 88.1558 80.1399 87.6581 79.7688C87.1607 79.3978 86.6969 79.0367 86.6278 78.9666C85.1722 77.4881 79.1911 77.6168 77.616 79.1609C77.4239 79.349 77.0136 79.669 76.7043 79.8722C76.3949 80.0751 75.8741 80.7742 75.5467 81.4261C75.2195 82.0778 74.8389 82.6917 74.7008 82.7903C74.5609 82.8898 74.3901 84.785 74.3156 87.0642C74.2365 89.4836 74.0605 91.3762 73.8857 91.6902C73.4252 92.5171 72.2244 92.9206 71.3285 92.549C70.1162 92.0462 69.8044 91.0043 69.8044 87.4582C69.8044 82.7199 69.3439 81.5576 66.4944 79.1026C65.2136 77.9992 61.4394 77.5232 59.1157 78.1721C57.7332 78.5583 55.124 80.9349 54.72 82.1761C54.552 82.6917 54.2969 83.1903 54.153 83.2835C53.9981 83.3839 53.8525 84.9763 53.7967 87.1804C53.7448 89.2304 53.5848 91.2137 53.4412 91.5881C53.0693 92.5573 51.7696 92.959 50.7364 92.424C50.3138 92.2051 49.9416 92.0007 49.9098 91.9695C49.8779 91.9386 49.787 80.3735 49.7081 66.2694C49.5612 40.0311 49.5331 39.3153 48.5709 37.4524C48.2056 36.7451 46.979 35.4215 45.8508 34.5172C44.6119 33.5241 40.3252 33.1005 38.5338 33.7938Z" fill="white"/>
</svg>
