<svg width="143" height="144" viewBox="0 0 143 144" fill="none" xmlns="http://www.w3.org/2000/svg">
<path fill-rule="evenodd" clip-rule="evenodd" d="M43.8471 0.1525C41.8845 0.388193 41.1916 0.618432 39.5929 1.56595C38.033 2.49023 36.5604 3.77848 35.9714 4.73358C35.7343 5.11771 35.393 5.58009 35.2129 5.76054C35.0331 5.94122 34.6979 6.69951 34.4687 7.44548C34.2394 8.19145 33.9423 8.8779 33.8088 8.97085C33.6507 9.08087 33.525 13.4106 33.4479 21.3998L33.3297 33.6598L32.6207 33.8927C32.2307 34.021 31.8585 34.1983 31.7935 34.287C31.7285 34.3759 31.1435 34.7067 30.4936 35.0223C29.8436 35.3377 29.2757 35.6782 29.2315 35.7787C29.187 35.8792 28.8148 36.1344 28.4043 36.3454C27.2421 36.943 26.2585 37.7759 23.6714 40.3532C21.3075 42.708 19.9471 44.257 19.7644 44.8015C19.7129 44.9551 19.3732 45.5074 19.0097 46.029C18.646 46.5507 18.1714 47.4311 17.9549 47.9852C17.7384 48.5394 17.4846 48.993 17.3905 48.993C17.2967 48.993 16.9663 49.7664 16.6562 50.712C16.3463 51.6577 16.0152 52.4871 15.9205 52.5556C15.7656 52.6673 15.1414 55.6768 14.6184 58.8333L14.422 60.0189L7.21344 60.1497V64.4055H10.8492C14.9134 64.4055 14.7654 64.336 14.7732 66.2472C14.7772 67.1684 15.6905 71.5351 15.9505 71.8747C16.0502 72.0051 16.3674 72.8044 16.6555 73.6511C16.9434 74.4976 17.2591 75.2446 17.357 75.3109C17.4548 75.3771 17.82 76.0183 18.1683 76.7355C18.9334 78.31 19.5689 79.3348 20.7474 80.8941C21.8376 82.3367 24.7669 85.3554 25.7513 86.0509C26.1498 86.3321 26.7404 86.8054 27.0642 87.1027C27.3877 87.3998 27.7813 87.6429 27.9387 87.6429C28.0961 87.6429 28.3097 87.7899 28.4137 87.9696C28.6335 88.3492 33.0206 90.6251 33.9797 90.857C34.3373 90.9433 34.6296 91.0967 34.6296 91.1977C34.6296 91.395 34.7159 91.419 37.584 92.0165C38.6239 92.2332 39.6874 92.5045 39.9474 92.6192C40.2074 92.734 41.0316 92.8962 41.7791 92.9794L43.1381 93.1307V100.447H47.3923V93.1558L48.1309 93.0076C48.5372 92.9261 49.1768 92.8594 49.5523 92.8594C49.9276 92.8594 50.4197 92.7584 50.6454 92.6349C50.8711 92.5111 51.9066 92.2332 52.9465 92.017C53.9864 91.8007 55.369 91.3829 56.019 91.0886C56.6689 90.7944 57.4666 90.4709 57.7916 90.3699C58.4245 90.1734 61.61 88.4168 61.8085 88.155C61.874 88.0685 62.204 87.8553 62.5417 87.6811C62.8794 87.5068 63.4644 87.1032 63.8416 86.7845C64.2188 86.4656 65.0004 85.8081 65.5785 85.3232C66.7605 84.3318 67.2641 83.822 68.3598 82.5079C68.7777 82.0066 69.3409 81.3344 69.6113 81.0143C69.8817 80.6939 70.3319 80.0537 70.6115 79.5916C70.8913 79.1292 71.1851 78.6977 71.2645 78.6325C71.5647 78.3856 73.3382 74.9166 73.6285 74.0087C73.7953 73.487 74.0236 72.9998 74.1364 72.926C74.381 72.7657 75.5124 67.8785 75.5155 66.9685C75.5166 66.6176 75.6239 66.2645 75.7539 66.1839C75.8839 66.1032 75.9903 65.6703 75.9903 65.2214V64.4055H83.317V60.1374H75.9903V59.2029C75.9903 58.6889 75.8839 58.2025 75.7539 58.1219C75.6239 58.0413 75.5166 57.6882 75.5155 57.3373C75.5124 56.4294 74.3815 51.5405 74.1371 51.3798C74.0251 51.306 73.697 50.6068 73.4079 49.8259C73.1189 49.0451 72.8107 48.3516 72.7228 48.2847C72.6351 48.2178 72.2974 47.6044 71.9724 46.922C71.6474 46.2393 71.3045 45.679 71.2104 45.6771C71.1161 45.675 70.8623 45.3267 70.6458 44.9027C70.2057 44.0403 67.7522 41.0085 66.7926 40.1412C66.6728 40.0328 66.2273 39.6212 65.8026 39.2264C65.3781 38.8313 64.6251 38.239 64.1292 37.9099C63.6334 37.5806 63.2276 37.2356 63.2276 37.1428C63.2276 37.0504 62.749 36.7277 62.164 36.4258C61.579 36.124 61.1004 35.7972 61.1004 35.6998C61.1004 35.6023 60.5155 35.2793 59.8005 34.9822C59.0856 34.6849 58.5006 34.3695 58.5006 34.2813C58.5006 34.1931 57.6233 33.8299 56.5508 33.4742C55.4782 33.1185 54.2762 32.6815 53.8791 32.5034C53.482 32.3254 51.86 31.9908 50.2748 31.7603L47.3923 31.3411V24.0958H43.1381V31.3527L40.8337 31.6389C39.5664 31.7964 38.3431 31.9242 38.1157 31.923C37.7317 31.9208 37.7021 31.4454 37.7021 25.2814V18.6421H76.2266V14.374H37.639L37.7636 12.0621C37.8707 10.0725 37.9912 9.55178 38.6282 8.32755C39.4022 6.83965 40.5199 5.64625 41.794 4.94699C42.4964 4.56144 44.4635 4.52943 71.0095 4.46968C96.2326 4.413 99.6164 4.44786 100.741 4.77603C101.44 4.97971 102.07 5.30195 102.143 5.49212C102.286 5.86534 102.934 5.97488 102.934 5.62585C102.934 5.50919 103.454 4.84858 104.091 4.15786C104.727 3.46714 105.199 2.77571 105.141 2.62135C105.081 2.46699 104.641 2.14143 104.161 1.89791C103.681 1.65439 103.129 1.33144 102.934 1.17993C102.739 1.02841 101.994 0.709724 101.279 0.47166C100.054 0.063583 98.4217 0.0370246 72.6814 0.00335409C57.6675 -0.0160894 44.6921 0.0510139 43.8471 0.1525ZM0.123047 10.9617V31.72L1.50473 33.1062H26.6411L28.2627 31.4793L28.1301 10.9041L26.7612 9.63169H1.39318L0.123047 10.9617ZM81.4262 11.1032V41.1179L82.7975 42.5908H109.83C139.864 42.5908 137.659 42.716 138.139 40.9834C138.405 40.0233 138.497 12.8562 138.239 11.5616C138.158 11.1559 137.844 10.5557 137.541 10.2278L136.99 9.63169H82.7132L81.4262 11.1032ZM4.37729 28.8381H23.994V13.8998H4.37729V28.8381ZM85.6805 38.3227H133.895V13.8998H85.6805V38.3227ZM9.57691 23.3844H18.5581V19.3534H9.57691V23.3844ZM91.1165 23.3844H100.098V19.3534H91.1165V23.3844ZM105.297 23.3844H128.696V19.3534H105.297V23.3844ZM91.1165 33.1062H128.696V28.8381H91.1165V33.1062ZM41.4837 35.7038C41.2887 35.8131 40.2121 36.0647 39.0911 36.2629C37.9704 36.4614 36.5878 36.8315 36.0186 37.0855C35.4498 37.3397 34.4788 37.7363 33.8615 37.9673C33.2442 38.1982 32.7389 38.4588 32.7389 38.5463C32.7389 38.6341 32.3245 38.8892 31.8181 39.1133C30.468 39.7108 28.2622 41.423 26.3783 43.3361C24.5043 45.2387 23.994 45.8241 23.994 46.0712C23.994 46.2033 23.7799 46.5056 23.5183 46.7432C23.2564 46.9808 22.8071 47.6642 22.5197 48.2619C22.2323 48.8597 21.8149 49.5948 21.592 49.8957C21.3692 50.1963 21.0052 50.9966 20.783 51.674C20.5609 52.3512 20.3028 52.9587 20.2094 53.0239C19.958 53.1996 19.2437 56.229 19.0955 57.748C19.0246 58.4752 18.8656 59.1991 18.742 59.3564C18.2749 59.951 18.8547 60.1374 21.1718 60.1374H23.5214V64.4055H21.0397C18.8256 64.4055 18.1225 64.5817 18.7599 64.977C18.871 65.0457 19.0312 65.7684 19.1161 66.5829C19.2818 68.1728 19.9457 71.0872 20.1865 71.2819C20.2671 71.3471 20.4808 71.8272 20.6613 72.3489C21.117 73.6668 23.0451 77.2098 23.3065 77.2098C23.4247 77.2098 23.5214 77.3528 23.5214 77.5275C23.5214 78.1013 27.9656 82.9006 28.4969 82.9006C28.6203 82.9006 28.721 82.1714 28.721 81.2803C28.721 79.6374 29.141 76.9523 29.4319 76.7355C29.5194 76.6703 29.7644 76.1003 29.9762 75.4691C30.188 74.8377 30.6836 73.7958 31.0773 73.1537C31.4713 72.5115 31.7935 71.9237 31.7935 71.8476C31.7935 71.7715 32.0858 71.4016 32.4434 71.0256C32.801 70.6495 33.3198 70.0998 33.5968 69.8042C34.4134 68.9318 35.1442 68.3473 36.4613 67.5131C37.1439 67.0809 37.7021 66.5872 37.7021 66.4162C37.7021 66.2453 37.2767 65.7009 36.7568 65.2065C36.2368 64.7123 35.8114 64.1663 35.8114 63.9936C35.8114 63.8208 35.662 63.6218 35.4795 63.5514C35.2968 63.4812 34.9073 62.7644 34.6138 61.9585C34.3203 61.1525 33.9643 60.3432 33.823 60.1602C33.4914 59.7305 33.4789 54.7271 33.8088 54.4974C33.9423 54.4042 34.2326 53.7391 34.4538 53.0192C34.675 52.2991 35.0444 51.4542 35.2746 51.1415C36.2389 49.8314 38.4339 47.6611 39.1628 47.2966C42.3693 45.6942 44.1842 45.3184 46.8731 45.7004C48.6202 45.9486 51.4483 47.1852 52.5043 48.1623C52.8775 48.5078 53.263 48.8625 53.3608 48.951C54.5666 50.0391 55.966 52.4401 56.6184 54.5398C56.7996 55.1234 56.8656 56.3445 56.7977 57.8594C56.7046 59.9347 56.5914 60.4587 55.9538 61.7676C55.1724 63.371 54.6212 64.185 53.327 65.647C52.8862 66.1447 52.5671 66.5825 52.618 66.6199C52.6685 66.6572 53.3483 67.1039 54.1282 67.6125C55.8261 68.7201 58.0424 70.8664 58.59 71.9339C58.8076 72.3579 59.0891 72.7046 59.2158 72.7046C59.3425 72.7046 59.446 72.8096 59.446 72.9379C59.446 73.0662 59.7708 73.8399 60.1678 74.657C61.1201 76.617 61.5653 78.5767 61.5696 80.8258C61.5738 82.9824 61.7918 83.1215 63.2316 81.885C64.6128 80.6989 68.6635 75.5241 68.6635 74.9455C68.6635 74.8924 69.0306 74.0625 69.4792 73.1012C69.9277 72.14 70.4666 70.6172 70.677 69.7171C70.8871 68.8173 71.1452 67.9165 71.2503 67.7157C71.3557 67.5148 71.5184 66.6878 71.6122 65.878L71.7824 64.4055H67.0091V60.1374H71.7911L71.6226 58.5369C71.53 57.6567 71.3579 56.9008 71.2404 56.8574C71.1232 56.8138 71.027 56.5624 71.027 56.2987C71.027 54.8424 69.4515 50.7775 67.781 47.924C66.5456 45.8137 62.9293 41.9003 61.164 40.7634C60.8041 40.5317 60.3181 40.1682 60.0842 39.956C59.8504 39.7435 59.2123 39.3722 58.6661 39.1306C58.1201 38.8892 57.6181 38.6153 57.5505 38.5221C57.3751 38.2805 55.2178 37.3743 54.8177 37.3743C54.6335 37.3743 54.4827 37.2763 54.4827 37.1566C54.4827 36.9567 52.2937 36.412 48.0423 35.5546L47.3923 35.4235V40.4568H43.1381V35.4773L42.4882 35.4913C42.1306 35.4989 41.6787 35.5945 41.4837 35.7038ZM105.297 59.6964C105.297 70.2867 105.333 71.3743 105.69 71.6364C106.114 71.947 106.184 71.8683 102.803 74.8386C99.4181 77.8123 97.5099 79.5157 96.0797 80.8412C92.9999 83.6956 92.3658 84.1122 90.7548 84.3413C88.8239 84.6156 87.0988 85.0398 87.0976 85.2407C87.0969 85.3229 86.4592 85.657 85.6805 85.9831C84.9017 86.3091 84.2641 86.6532 84.2634 86.7475C84.2629 86.8421 83.97 87.0714 83.6125 87.2573C82.6543 87.7555 80.0902 90.3571 79.5698 91.359C79.4225 91.6423 79.1668 92.0158 79.0011 92.1889C78.6674 92.5377 78.0699 93.8951 77.6097 95.3491C77.4448 95.8708 77.2089 96.4354 77.0858 96.6035C76.9626 96.7718 76.7818 99.0659 76.6837 101.701C76.4979 106.703 76.3077 107.712 75.3566 108.741C75.0551 109.067 74.8085 109.405 74.8085 109.492C74.8085 109.579 74.3349 109.928 73.7559 110.268C72.1622 111.206 71.6235 112.301 72.1192 113.596C72.5077 114.612 73.1312 114.674 82.8916 114.672C92.3915 114.671 94.4393 114.527 96.1764 113.739C96.7082 113.498 97.5649 113.125 98.0804 112.911C98.5959 112.697 99.0745 112.44 99.144 112.34C99.2134 112.241 99.6958 111.9 100.216 111.584C101.66 110.705 104.114 107.999 104.941 106.375C105.173 105.919 105.443 105.492 105.54 105.427C105.85 105.219 106.729 102.047 106.881 100.587C107.025 99.2075 107.212 98.8286 108.331 97.6477C108.635 97.3274 109.439 96.4124 110.119 95.6145C112.286 93.069 112.49 92.8362 113.333 91.9413C113.788 91.4583 114.692 90.4335 115.342 89.664C115.992 88.8944 116.896 87.8672 117.351 87.3809C117.806 86.8948 118.431 86.1946 118.739 85.8251C119.048 85.4555 119.729 84.673 120.251 84.0861C120.774 83.4993 121.622 82.5389 122.135 81.9521C122.648 81.3652 123.456 80.4545 123.932 79.9281C124.407 79.4017 125.328 78.3396 125.978 77.568C126.628 76.7965 127.532 75.7688 127.986 75.2846C128.441 74.8004 129.026 74.1488 129.286 73.837C130.361 72.5476 132.613 69.9611 132.853 69.7406C133.07 69.5414 134.275 68.1707 137.308 64.6739C137.798 64.1086 138.707 63.0881 139.808 61.8653C142.332 59.0635 142.876 57.8933 142.876 55.2663C142.876 52.9606 142.291 51.6098 140.594 50.0033C139.125 48.6112 138.091 48.2098 135.904 48.1815C133.129 48.1455 132.264 48.6702 126.43 53.9316C125.9 54.4106 124.791 55.3892 123.966 56.1064C123.142 56.8237 122.071 57.784 121.586 58.2405C120.833 58.9504 119.198 60.3873 118.215 61.2044C118.059 61.3348 116.976 62.3028 115.809 63.3551C114.642 64.4076 113.502 65.3378 113.274 65.4225C113.046 65.5069 112.86 65.6696 112.86 65.7834C112.86 66.1187 109.998 68.4486 109.765 68.3037C109.643 68.2283 109.551 63.8383 109.551 58.1079V48.0445H105.297V59.6964ZM42.7543 50.1989C42.348 50.317 41.8831 50.5743 41.7207 50.7704C41.5586 50.9665 41.2939 51.127 41.1325 51.127C40.756 51.127 38.648 53.3798 38.6461 53.7844C38.6452 53.9529 38.4653 54.4111 38.246 54.8023C37.9751 55.2855 37.843 56.0841 37.8338 57.292C37.8113 60.2688 39.2391 62.6655 41.8382 64.014C42.4882 64.3512 43.6096 64.696 44.3305 64.7804C45.6684 64.9369 48.3377 64.5352 48.3377 64.1774C48.3377 64.0702 48.5842 63.9206 48.8856 63.8447C49.437 63.706 51.4102 61.8762 51.4102 61.5037C51.4102 61.3937 51.6317 61.0034 51.9023 60.6361C52.7198 59.5268 52.8186 54.9754 52.0432 54.15C51.89 53.9871 51.61 53.5529 51.4204 53.1852C50.96 52.2908 50.0995 51.4516 49.2609 51.0791C48.8832 50.9115 48.5741 50.7061 48.5741 50.6231C48.5741 50.0678 44.2804 49.755 42.7543 50.1989ZM134.537 52.6429C134.045 52.825 133.262 53.3319 132.797 53.7694C131.682 54.8196 131.45 55.0276 129.527 56.6992C128.627 57.4817 127.715 58.282 127.5 58.4776C125.692 60.1199 124.808 60.9068 123.505 62.0343C122.676 62.7516 121.653 63.6586 121.231 64.0498C120.81 64.4411 120.163 65.0213 119.794 65.339C118.419 66.5241 114.837 69.6863 113.915 70.5283C113.391 71.008 112.334 71.9339 111.568 72.586C110.802 73.2381 109.78 74.145 109.297 74.6015C108.815 75.0579 107.799 75.9649 107.04 76.617C106.281 77.2691 105.233 78.191 104.71 78.6657C103.259 79.9847 101.049 81.9407 99.5219 83.2562C97.7462 84.7861 96.3153 86.1941 96.3189 86.4075C96.3232 86.6541 104.743 94.9935 104.988 94.9935C105.102 94.9935 105.527 94.5935 105.931 94.1043C106.335 93.6154 107.055 92.7883 107.53 92.2666C109.312 90.3097 109.937 89.6019 111.088 88.2406C111.738 87.4714 112.642 86.4514 113.097 85.9738C113.552 85.4963 114.18 84.7961 114.493 84.4181C114.806 84.0399 115.487 83.2503 116.005 82.6634C116.524 82.0766 117.331 81.1433 117.799 80.5896C118.268 80.0357 119.023 79.1807 119.478 78.6894C119.933 78.1981 120.89 77.1125 121.605 76.2769C122.32 75.4416 123.224 74.4184 123.614 74.003C124.004 73.5878 124.908 72.5687 125.623 71.7383C126.338 70.9079 127.455 69.6294 128.105 68.8969C129.534 67.2855 131.904 64.5869 132.713 63.6474C133.038 63.2704 133.677 62.5596 134.132 62.0675C136.553 59.4493 138.386 57.1965 138.386 56.8396C138.386 56.6973 138.492 56.5807 138.622 56.5807C138.752 56.5807 138.858 56.109 138.858 55.5329C138.858 54.4262 138.331 53.2516 137.639 52.8184C136.935 52.3771 135.478 52.2948 134.537 52.6429ZM43.1381 69.2882C42.0533 69.4862 40.4215 69.941 40.302 70.0788C40.237 70.1537 39.7052 70.4567 39.1202 70.7522C38.5353 71.0478 37.5781 71.7516 36.9931 72.3162C35.0673 74.1749 35.1028 74.1211 33.5578 77.5654C33.209 78.3434 33.1291 79.1928 33.113 82.2886L33.0934 86.0632L33.7823 86.2503C34.1612 86.353 34.5334 86.5365 34.6095 86.6579C34.7622 86.9014 37.5178 87.7545 39.002 88.0177C39.522 88.11 40.0006 88.2615 40.0656 88.3542C40.1306 88.4472 40.8486 88.597 41.6609 88.6876L43.1381 88.8519V84.0861H47.3923V88.8448L48.6332 88.7004C49.3157 88.6207 50.0867 88.4669 50.3467 88.3583C50.6067 88.2494 51.617 87.9812 52.592 87.7619C53.5669 87.5428 55.0294 87.0529 55.8417 86.6735L57.3189 85.9838V82.6388C57.3189 79.4901 56.902 76.6134 56.3948 76.2618C56.3 76.1963 55.9805 75.6341 55.6843 75.0124C55.3879 74.3907 54.9434 73.7735 54.6962 73.6407C54.4487 73.5079 54.2464 73.2466 54.2464 73.0602C54.2464 72.8739 54.007 72.5971 53.7146 72.4454C53.4222 72.2936 52.9701 71.9337 52.7101 71.6456C52.4502 71.3575 51.7589 70.9207 51.1739 70.6748C50.5889 70.429 50.0571 70.1567 49.9922 70.07C49.6053 69.5528 44.7337 68.9973 43.1381 69.2882ZM91.2346 88.5197C88.7003 88.8569 86.5909 89.8941 84.7717 91.6973C83.1421 93.3123 82.7569 93.8164 82.2518 94.9935C81.9999 95.5803 81.7359 96.1138 81.6652 96.179C81.2582 96.5544 80.9533 98.9616 80.9517 101.814C80.9498 105.564 80.6879 107.527 80.0124 108.856C79.1528 110.548 78.7626 110.46 86.5668 110.345C93.279 110.246 95.2315 110.052 95.6118 109.446C95.6794 109.339 96.2182 109.042 96.8091 108.788C98.9041 107.887 101.406 104.883 102.116 102.415C102.334 101.659 102.607 100.855 102.723 100.628C103.341 99.4197 103.124 99.1191 97.6755 93.641C94.7833 90.7332 92.3107 88.3701 92.1805 88.3898C92.0502 88.4092 91.6246 88.4678 91.2346 88.5197ZM33.4479 108.022L17.5118 108.088C1.72359 108.153 1.56925 108.158 0.908424 108.653L0.241219 109.153L0.17551 119.442C0.139586 125.101 0.169843 129.978 0.243111 130.28C0.54847 131.54 -0.154903 131.509 28.4482 131.509C57.7951 131.509 56.4487 131.58 56.7259 130.029C56.8018 129.604 56.8332 124.733 56.7959 119.205L56.728 109.153L56.0611 108.653C55.4149 108.169 55.1202 108.151 46.5481 108.083L37.7021 108.013V96.179H33.4479V108.022ZM105.297 120.128H62.0458V124.396H105.297V128.739C105.297 133.398 105.001 135.191 104.102 135.962C103.85 136.179 103.643 136.491 103.643 136.655C103.643 136.818 103.35 137.139 102.993 137.367C102.635 137.595 102.259 137.914 102.158 138.077C102.056 138.239 101.425 138.535 100.756 138.735C99.6939 139.051 95.9698 139.097 71.499 139.097C39.8229 139.097 42.2116 139.242 40.0729 137.185C38.7929 135.954 38.4147 135.808 37.8848 136.339C37.7066 136.518 37.1938 136.852 36.7452 137.08C35.3306 137.802 35.2867 137.884 35.87 138.706C36.4124 139.47 38.0935 141.231 38.2802 141.231C38.3384 141.231 39.003 141.59 39.7574 142.029C42.3638 143.547 40.9798 143.484 71.736 143.484C98.2458 143.484 99.8183 143.46 101.15 143.048C101.924 142.809 102.816 142.408 103.132 142.159C103.448 141.91 103.86 141.705 104.047 141.705C104.561 141.705 107.626 138.455 108.032 137.479C108.228 137.009 108.468 136.567 108.566 136.497C108.663 136.427 108.893 135.943 109.076 135.422C109.34 134.668 109.426 132.01 109.492 122.44L109.576 110.406H105.297V120.128ZM4.37729 127.241H52.592V112.54H4.37729V127.241ZM9.57691 122.025H20.9215V117.757H9.57691V122.025ZM26.1212 122.025H47.3923V117.757H26.1212V122.025ZM69.3726 133.881H73.6268V129.612H69.3726V133.881Z" fill="white"/>
</svg>
