<svg width="200" height="150" viewBox="0 0 200 150" fill="none" xmlns="http://www.w3.org/2000/svg">
<path fill-rule="evenodd" clip-rule="evenodd" d="M50.3128 0.184632C49.715 0.280124 49.0073 0.360661 48.7406 0.363729C48.4737 0.366669 47.8981 0.450528 47.4617 0.549856C47.025 0.649311 46.2075 0.828793 45.6448 0.948447C45.0821 1.06823 44.4811 1.22073 44.3094 1.28746C44.1376 1.35406 43.7636 1.45723 43.4781 1.51667C42.8348 1.65039 40.7007 2.40576 40.5356 2.55801C40.4687 2.61963 40.3294 2.67013 40.226 2.67013C39.9258 2.67013 36.8007 4.16861 35.6351 4.87132C35.1942 5.13721 34.7811 5.35466 34.7171 5.35466C34.653 5.35466 34.5245 5.42868 34.4315 5.51918C34.3386 5.60982 34.0323 5.82267 33.751 5.99256C31.1834 7.54179 26.4461 11.8423 24.6666 14.2392C24.4579 14.5204 24.2142 14.8275 24.125 14.9216C23.9057 15.1532 21.9066 18.1879 21.5008 18.9052C19.4715 22.4926 18.0726 26.2602 17.2765 30.2825C16.5581 33.912 16.6173 30.4396 16.5777 71.2481C16.5456 104.361 16.5196 108.594 16.3479 108.784C16.2413 108.902 15.9147 109.036 15.622 109.083C14.8486 109.207 13.0852 109.849 11.6997 110.511C6.52598 112.984 2.55408 117.573 0.866429 123.027C0.0765752 125.58 -0.00642242 126.18 0.000355792 129.291C0.00623877 131.978 0.0584193 132.441 0.605792 134.66C0.709895 135.082 0.919882 135.743 1.07246 136.13C1.22503 136.517 1.3973 136.977 1.45549 137.153C1.57647 137.519 1.91859 138.276 2.09073 138.559C2.15493 138.664 2.24267 138.837 2.28564 138.942C2.32861 139.048 2.43347 139.25 2.51864 139.392C2.60382 139.534 2.84248 139.937 3.04889 140.287C4.33829 142.474 7.32133 145.465 9.55891 146.814C9.89923 147.02 10.3309 147.288 10.5181 147.41C10.7053 147.532 10.9449 147.667 11.0504 147.71C11.1559 147.753 11.53 147.932 11.8817 148.106C12.4861 148.407 12.7269 148.503 14.1198 148.999C14.9086 149.28 15.8895 149.525 17.2531 149.783C18.3286 149.986 23.7504 150 99.9984 150C176.992 150 181.661 149.987 182.808 149.777C184.639 149.442 184.951 149.356 186.676 148.71C187.542 148.386 188.76 147.828 189.397 147.463C191.305 146.372 192.48 145.478 193.984 143.976C195.206 142.756 196.282 141.406 197.055 140.122C197.733 138.994 198.662 137.127 198.664 136.886C198.665 136.775 198.708 136.642 198.76 136.59C198.943 136.407 199.477 134.533 199.783 132.998C200.046 131.682 200.078 127.025 199.835 125.711C199.393 123.332 198.399 120.69 197.085 118.401C196.13 116.738 193.693 114.053 191.962 112.757C190.979 112.021 188.919 110.691 188.762 110.691C188.735 110.691 188.291 110.494 187.775 110.255C186.629 109.723 185.104 109.196 184.38 109.082C184.085 109.036 183.756 108.902 183.649 108.784C183.478 108.595 183.452 104.344 183.418 71.2484C183.378 30.747 183.422 33.3926 182.74 30.4103C182.635 29.9533 182.551 29.4643 182.552 29.3237C182.552 29.1831 182.473 28.8092 182.375 28.4928C181.951 27.1287 181.803 26.6144 181.723 26.2251C181.675 25.9975 181.584 25.7784 181.519 25.7382C181.454 25.6982 181.401 25.548 181.401 25.4046C181.401 25.2611 181.322 24.9625 181.226 24.741C181.131 24.5194 180.948 24.0793 180.82 23.7629C180.341 22.5728 180.081 22.0017 179.456 20.7588C179.103 20.0557 178.748 19.3642 178.669 19.2222C176.571 15.4916 174.214 12.5708 170.74 9.39757C170.207 8.91026 167.971 7.1147 167.695 6.9526C167.576 6.88229 167 6.50006 166.414 6.10313C164.977 5.12814 162.231 3.65114 160.491 2.91736C159.411 2.46176 157.323 1.70293 156.782 1.56883C156.641 1.53406 156.238 1.42578 155.887 1.32824C154.029 0.813194 152.574 0.517769 151.155 0.367435C150.592 0.307864 149.729 0.198692 149.236 0.124931C148.622 0.0327623 133.124 -0.00622848 99.8705 0.000802447C59.6816 0.00911172 51.2142 0.0405615 50.3128 0.184632ZM51.0802 8.43843C49.6785 8.59822 47.7749 8.93583 47.1248 9.13986C46.8132 9.23752 46.4555 9.31755 46.3298 9.31755C46.204 9.31755 45.9121 9.39591 45.6812 9.49178C45.4502 9.58753 44.9446 9.766 44.5578 9.88834C43.5302 10.2132 42.4242 10.6927 40.6571 11.5798C37.4935 13.1681 34.099 15.9173 31.4548 19.033C30.8807 19.7095 29.0918 22.2923 28.7198 22.9817C28.0781 24.1708 27.1646 26.0737 27.1646 26.2209C27.1646 26.3173 27.1141 26.4509 27.0525 26.5177C26.9191 26.6623 26.1627 28.7501 26.013 29.3876C25.955 29.6337 25.8519 30.0364 25.7836 30.2825C25.5807 31.0146 25.2763 32.5696 25.0957 33.798C24.9585 34.7314 24.9265 41.872 24.9265 71.6371V108.326L48.2026 108.394C64.0857 108.44 71.6217 108.504 71.9291 108.597C72.8462 108.874 73.6087 109.525 77.2429 113.134L80.9608 116.827H100.01H119.059L122.766 113.14C126.403 109.522 127.165 108.87 128.068 108.597C128.375 108.504 135.911 108.44 151.794 108.394L175.07 108.326V71.5732C175.07 42.3335 175.037 34.5854 174.906 33.6701C174.721 32.3702 174.421 30.88 174.175 30.0268C174.083 29.7104 173.97 29.2653 173.922 29.0375C173.875 28.8098 173.783 28.5907 173.718 28.5506C173.653 28.5106 173.598 28.3517 173.595 28.1976C173.593 28.0436 173.48 27.6874 173.344 27.4062C173.208 27.125 173.095 26.8221 173.092 26.7333C173.09 26.6444 173.035 26.4719 172.97 26.3498C172.904 26.2277 172.467 25.3513 171.997 24.4021C170.253 20.8779 167.891 17.8624 164.803 15.2178C162.524 13.265 160.608 12.0932 157.102 10.5062C155.886 9.95621 153.394 9.20416 151.474 8.80851C148.969 8.29193 149.729 8.29921 99.8066 8.31455C73.5346 8.32261 51.6077 8.37834 51.0802 8.43843ZM77.7363 25.2783C77.45 25.394 77.0471 25.6 76.8411 25.736C76.4792 25.9751 74.2871 27.9614 72.3101 29.8417C71.0703 31.0209 69.7345 32.2693 67.5142 34.3241C66.5294 35.2353 65.4586 36.2377 65.1346 36.5514C64.8107 36.865 63.9186 37.6965 63.1523 38.3993C61.85 39.5936 60.2911 41.0502 59.5262 41.7876C59.344 41.9634 58.4813 42.7688 57.6094 43.5773C55.0447 45.9556 54.4312 46.5876 53.5101 47.8009C53.0304 48.4328 52.0075 50.1644 51.7139 50.8418C51.5714 51.1704 51.4012 51.5361 51.3357 51.6545C51.1622 51.9678 50.7597 53.23 50.528 54.1876C49.7281 57.4931 49.7279 59.7459 50.5269 63.1361C51.0925 65.5357 52.1818 67.7417 53.8411 69.8474C54.9559 71.2623 55.3618 71.6773 57.4108 73.4969C58.3955 74.3712 59.2588 75.1498 59.3291 75.2266C59.3995 75.3036 60.2915 76.1093 61.3114 77.0173C62.3314 77.9252 63.281 78.7839 63.4216 78.9254C63.5623 79.067 64.1666 79.6135 64.7645 80.1398C65.3624 80.6662 65.8803 81.1257 65.9155 81.1608C65.9507 81.196 66.5837 81.7712 67.3223 82.4392C68.0609 83.1071 68.6939 83.6852 68.7291 83.7239C68.7643 83.7625 69.3686 84.3055 70.072 84.9303C70.7754 85.5553 71.4417 86.1564 71.5526 86.2663C71.6634 86.3761 72.2089 86.8687 72.7646 87.3608C73.7657 88.2474 74.7117 89.106 75.6992 90.0243C77.1688 91.3908 78.4717 91.8481 79.9981 91.533C81.2721 91.27 82.2659 90.5028 82.8575 89.3255C83.1313 88.7806 83.1808 88.5069 83.1808 87.5379C83.1808 85.8241 82.816 85.2285 80.4891 83.1423C79.3736 82.1422 77.3437 80.3112 75.9541 79.0516C75.1784 78.3485 74.06 77.3418 73.4689 76.8144C72.8776 76.2871 72.3032 75.7668 72.1921 75.6583C72.0811 75.5498 71.445 74.9745 70.7784 74.38C70.112 73.7854 69.5031 73.2414 69.4254 73.1711C69.3476 73.1008 68.7447 72.5543 68.0856 71.9567C67.4266 71.3591 66.2514 70.2952 65.4742 69.5926C64.697 68.8901 63.9995 68.2573 63.924 68.1865C63.8487 68.1156 63.3647 67.6838 62.8487 67.2268C59.9021 64.6173 58.9708 63.1715 58.4356 60.3754C58.1946 59.117 58.1942 58.2464 58.4338 56.9361C58.8548 54.6335 59.8917 52.7234 61.5166 51.2579C61.861 50.9471 62.9454 49.9404 63.9263 49.0208C64.9074 48.101 65.8039 47.2622 65.9187 47.1567C66.0336 47.0513 66.5259 46.5907 67.0127 46.1333C67.4996 45.6759 68.5534 44.6979 69.3545 43.9601C70.1557 43.2222 70.9952 42.446 71.2199 42.2351C72.7242 40.8233 73.5977 40.0069 75.0492 38.6557C75.9556 37.812 76.8492 36.9779 77.035 36.8021C77.8819 36.0007 79.4089 34.5734 80.828 33.2566C82.8545 31.3761 83.1808 30.8076 83.1808 29.1565C83.1808 28.1845 83.131 27.9035 82.8651 27.3742C82.3706 26.39 81.5223 25.6326 80.4909 25.254C79.7611 24.9863 78.4298 24.9979 77.7363 25.2783ZM119.38 25.2803C118.651 25.5467 117.446 26.7127 117.089 27.4974C116.88 27.9558 116.816 28.3457 116.816 29.1684C116.816 30.7201 117.194 31.425 118.828 32.919C119.511 33.5431 120.474 34.4341 120.968 34.8991C121.463 35.3642 122.018 35.8819 122.202 36.0496C122.542 36.3609 125.362 38.9953 128.838 42.2493C130.025 43.3604 130.518 43.8179 131.769 44.9651C132.431 45.5728 133.582 46.65 134.326 47.3588C135.071 48.0675 136.083 49.0145 136.575 49.4631C139.212 51.8659 140.278 53.1384 140.855 54.5711C141.01 54.9578 141.196 55.384 141.268 55.5183C141.432 55.8255 141.61 56.8977 141.711 58.1898C141.842 59.8777 141.423 61.783 140.566 63.3918C139.859 64.7187 139.244 65.4205 137.214 67.217C136.863 67.528 136 68.3101 135.296 68.9549C134.593 69.5997 133.529 70.5533 132.932 71.074C132.335 71.5947 131.443 72.399 130.95 72.8615C130.456 73.324 129.477 74.2145 128.774 74.8404C127.425 76.0404 126.853 76.5572 125.587 77.7201C125.159 78.113 124.55 78.6595 124.234 78.9346C123.917 79.2098 123.629 79.4682 123.594 79.5086C123.559 79.549 122.868 80.1759 122.06 80.9017C117.563 84.9359 117.513 84.9872 117.083 85.9305C116.882 86.3702 116.816 86.7739 116.816 87.5526C116.816 88.7588 117.075 89.4623 117.818 90.271C118.482 90.9935 119.059 91.3241 120.047 91.5495C120.82 91.7256 120.997 91.7258 121.762 91.5511C122.71 91.3352 123.109 91.1271 123.818 90.4795C124.082 90.2386 125.132 89.2996 126.152 88.3927C127.172 87.4858 128.064 86.6801 128.134 86.6021C128.205 86.5243 129.096 85.7139 130.115 84.8014C131.134 83.8888 132.059 83.056 132.171 82.9505C132.945 82.2233 133.838 81.4143 134.273 81.0459C134.555 80.8077 135.384 80.0602 136.116 79.3848C136.849 78.7093 137.511 78.0992 137.587 78.0289C137.664 77.9584 138.183 77.4982 138.742 77.0062C139.301 76.514 139.94 75.9388 140.164 75.7278C140.73 75.1925 141.362 74.6213 142.842 73.3063C144.352 71.9645 145.839 70.4343 146.328 69.7196C146.52 69.4384 146.711 69.1795 146.751 69.1443C146.829 69.0749 147.966 67.1465 148.294 66.5237C149.276 64.6651 150.069 61.1281 150.066 58.6173C150.065 56.7213 149.74 54.9062 148.931 52.2701C148.726 51.6033 147.64 49.5185 146.962 48.4903C146.129 47.2268 144.838 45.777 143.215 44.2804C142.452 43.5773 141.48 42.6766 141.056 42.2788C140.631 41.881 140.111 41.3988 139.9 41.207C139.689 41.0154 139.026 40.3917 138.427 39.821C137.827 39.2504 136.708 38.2083 135.939 37.5052C135.17 36.8021 134.359 36.0542 134.135 35.8433C132.336 34.145 131.867 33.7055 131.138 33.0373C130.682 32.6189 129.786 31.7848 129.147 31.1837C125.244 27.5106 123.413 25.8548 123.019 25.6409C121.838 25.0001 120.507 24.8683 119.38 25.2803ZM18.5959 116.91C17.1473 117.13 14.9422 118.047 13.5148 119.023C12.0007 120.057 10.3979 121.938 9.49829 123.734C8.07001 126.586 7.79939 130.037 8.77238 132.989C9.88273 136.357 12.1495 138.99 15.218 140.474C16.4508 141.071 17.0687 141.283 18.468 141.593C19.3547 141.789 25.4689 141.808 99.359 141.847C171.652 141.885 179.425 141.869 180.697 141.687C183.909 141.226 186.171 140.107 188.28 137.937C189.06 137.134 190.039 135.783 190.509 134.86C190.989 133.919 191.497 132.177 191.706 130.752C191.91 129.366 191.91 129.181 191.71 127.796C191.399 125.647 190.905 124.266 189.8 122.452C188.499 120.318 185.686 118.151 183.255 117.411C182.833 117.282 182.344 117.113 182.168 117.034C181.937 116.93 174.834 116.881 156.343 116.857L130.838 116.822L127.056 120.589C123.837 123.795 123.16 124.408 122.507 124.714L121.74 125.072H100.062C78.8073 125.072 78.3725 125.067 77.7454 124.821C77.3937 124.682 77.0241 124.51 76.924 124.437C76.8238 124.365 75.0367 122.623 72.9524 120.566L69.1629 116.827L44.0393 116.844C30.2213 116.854 18.7718 116.883 18.5959 116.91Z" fill="white"/>
</svg>
