<svg width="149" height="141" viewBox="0 0 149 141" fill="none" xmlns="http://www.w3.org/2000/svg">
<path d="M14 73.5C14 55.5979 21.1116 38.429 33.7703 25.7703C46.429 13.1116 63.5979 6 81.5 6C99.4021 6 116.571 13.1116 129.23 25.7703C141.888 38.429 149 55.5979 149 73.5C149 91.4021 141.888 108.571 129.23 121.23C116.571 133.888 99.4021 141 81.5 141C63.5979 141 46.429 133.888 33.7703 121.23C21.1116 108.571 14 91.4021 14 73.5ZM77.2812 15.0872C71.6281 16.8084 66.0172 22.0059 61.3597 30.7387C59.826 33.6424 58.5062 36.6542 57.4109 39.75H77.2812V15.0872ZM48.5094 39.75C49.9171 35.2687 51.7243 30.9228 53.9094 26.7647C55.3779 24.0117 57.0622 21.3794 58.9466 18.8925C48.4937 23.23 39.4999 30.4672 33.0266 39.75H48.5094ZM43.5987 69.2812C43.8519 61.8816 44.7631 54.7856 46.2313 48.1875H28.1244C24.986 54.8142 23.109 61.9674 22.5894 69.2812H43.5987ZM54.8966 48.1875C53.237 55.1046 52.2815 62.1718 52.0447 69.2812H77.2812V48.1875H54.8966ZM85.7188 48.1875V69.2812H110.947C110.713 62.1721 109.76 55.1049 108.103 48.1875H85.7188ZM52.0531 77.7188C52.2872 84.8279 53.2399 91.8951 54.8966 98.8125H77.2812V77.7188H52.0531ZM85.7188 77.7188V98.8125H108.103C109.681 92.3578 110.685 85.245 110.955 77.7188H85.7188ZM57.4109 107.25C58.5809 110.512 59.8972 113.516 61.3597 116.261C66.0172 124.994 71.6366 130.183 77.2812 131.913V107.25H57.4109ZM58.9466 128.107C57.0622 125.621 55.3779 122.988 53.9094 120.235C51.7243 116.077 49.9171 111.731 48.5094 107.25H33.0266C39.4894 116.543 48.4864 123.782 58.9466 128.107ZM46.2313 98.8125C44.7077 91.877 43.8265 84.8159 43.5987 77.7188H22.5894C23.1125 85.2281 25.0447 92.3409 28.1244 98.8125H46.2313ZM104.053 128.107C114.514 123.782 123.511 116.543 129.973 107.25H114.491C113.083 111.731 111.276 116.077 109.091 120.235C107.622 122.988 105.938 125.621 104.053 128.107ZM85.7188 107.25V131.913C91.3719 130.192 96.9828 124.994 101.64 116.261C103.103 113.522 104.419 110.518 105.589 107.25H85.7188ZM116.769 98.8125H134.876C137.955 92.3409 139.888 85.2281 140.411 77.7188H119.401C119.173 84.8159 118.292 91.877 116.769 98.8125ZM140.411 69.2812C139.891 61.9674 138.014 54.8142 134.876 48.1875H116.769C118.237 54.7856 119.148 61.8816 119.401 69.2812H140.411ZM109.091 26.7647C111.175 30.6797 112.989 35.0334 114.491 39.75H129.973C123.511 30.4574 114.514 23.2176 104.053 18.8925C105.893 21.2887 107.58 23.9381 109.091 26.7647ZM105.589 39.75C104.494 36.6542 103.174 33.6424 101.64 30.7387C96.9828 22.0059 91.3719 16.8169 85.7188 15.0872V39.75H105.589Z" fill="white"/>
<path d="M100.502 116.188C103.809 116.186 107.063 116.574 110.269 117.354C113.469 118.132 116.631 119.295 119.758 120.852C120.881 121.434 121.779 122.269 122.477 123.404C123.161 124.519 123.502 125.724 123.5 127.072V133.5H77.5V127.075C77.5 125.723 77.8413 124.518 78.5254 123.406C79.2215 122.275 80.1168 121.439 81.2354 120.854C84.3633 119.292 87.5275 118.129 90.7285 117.354C93.9361 116.579 97.1927 116.19 100.502 116.188ZM100.5 87.5C103.338 87.5 105.706 88.4809 107.737 90.5127C109.769 92.5445 110.75 94.9121 110.75 97.75C110.75 100.588 109.769 102.956 107.737 104.987C105.706 107.019 103.338 108 100.5 108C97.6621 108 95.2945 107.019 93.2627 104.987C91.2309 102.956 90.25 100.588 90.25 97.75C90.25 94.9121 91.2309 92.5445 93.2627 90.5127C95.2945 88.4809 97.6621 87.5 100.5 87.5Z" fill="white" stroke="#1E1E1E" stroke-width="5"/>
<path d="M123.502 31.75C126.805 31.748 130.055 32.1437 133.258 32.9375C136.452 33.7294 139.61 34.914 142.733 36.499L142.941 36.6133C143.969 37.1993 144.805 38.0172 145.466 39.1133C146.157 40.2597 146.502 41.504 146.5 42.8975V49.5H100.5V42.9004C100.5 41.5033 100.847 40.2592 101.537 39.1152C102.24 37.9502 103.141 37.0965 104.26 36.502C107.384 34.9113 110.544 33.7266 113.739 32.9385C116.944 32.1482 120.197 31.752 123.502 31.75ZM123.5 2.5C126.322 2.5 128.684 3.49372 130.72 5.56934C132.757 7.64646 133.75 10.0778 133.75 13C133.75 15.9222 132.757 18.3535 130.72 20.4307C128.684 22.5063 126.322 23.5 123.5 23.5C120.678 23.5 118.316 22.5063 116.28 20.4307C114.243 18.3535 113.25 15.9222 113.25 13C113.25 10.0778 114.243 7.64646 116.28 5.56934C118.316 3.49372 120.678 2.5 123.5 2.5Z" fill="white" stroke="#1E1E1E" stroke-width="5"/>
<path d="M25.502 60.1875C28.8089 60.1855 32.063 60.5742 35.2686 61.3535C38.4686 62.1315 41.6314 63.2947 44.7578 64.8516C45.8807 65.4338 46.779 66.2689 47.4766 67.4043C48.1613 68.5189 48.5016 69.724 48.5 71.0723V77.5H2.5V71.0752C2.5 69.7233 2.84133 68.5183 3.52539 67.4062C4.22152 66.2746 5.11683 65.439 6.23535 64.8545C9.36332 63.2921 12.5275 62.1287 15.7285 61.3545C18.9361 60.5787 22.1927 60.1895 25.502 60.1875ZM25.5 31.5C28.3379 31.5 30.7055 32.4809 32.7373 34.5127C34.7691 36.5445 35.75 38.9121 35.75 41.75C35.75 44.5879 34.7691 46.9555 32.7373 48.9873C30.7055 51.0191 28.3379 52 25.5 52C22.6621 52 20.2945 51.0191 18.2627 48.9873C16.2309 46.9555 15.25 44.5879 15.25 41.75C15.25 38.9121 16.2309 36.5445 18.2627 34.5127C20.2945 32.4809 22.6621 31.5 25.5 31.5Z" fill="white" stroke="#1E1E1E" stroke-width="5"/>
</svg>
