<svg width="160" height="139" viewBox="0 0 160 139" fill="none" xmlns="http://www.w3.org/2000/svg">
<path d="M15.2309 48.4077V113.204M8.58755 43.4798C3.87446 41.2221 3.87446 35.1313 8.58755 32.8736C14.7671 29.9135 23.9988 25.7119 37.057 20.2725C55.2 12.7152 67.5931 8.23397 74.2467 5.96269C77.9935 4.6791 82.0609 4.6791 85.8077 5.96269C92.4579 8.23397 104.858 12.7152 122.997 20.2725C136.059 25.7119 145.287 29.9135 151.47 32.8736C156.177 35.1313 156.177 41.2221 151.47 43.4798C145.287 46.4399 136.056 50.6415 122.997 56.081C104.854 63.6383 92.4613 68.1194 85.8077 70.3907C82.0609 71.6743 77.9935 71.6743 74.2467 70.3907C67.5966 68.1194 55.1966 63.6383 37.057 56.081C23.9954 50.6381 14.7671 46.4399 8.58755 43.4798Z" stroke="white" stroke-width="10" stroke-linecap="round" stroke-linejoin="round"/>
<path d="M36.0409 55.6553C35.8011 60.245 35.6851 64.8404 35.693 69.4364C35.693 79.988 36.2352 86.6143 36.7673 90.5805C37.2345 94.0454 39.2193 96.9919 42.3159 98.6118C48.3044 101.749 60.4691 106.384 80.0274 106.384C99.5856 106.384 111.75 101.753 117.739 98.6153C120.835 96.9953 122.82 94.0488 123.287 90.5873C123.819 86.6177 124.362 79.9914 124.362 69.4433C124.37 64.8461 124.254 60.2496 124.014 55.6587M25.462 123.436C25.462 126.149 24.3841 128.751 22.4654 130.67C20.5467 132.589 17.9444 133.667 15.231 133.667C12.5176 133.667 9.91528 132.589 7.99659 130.67C6.07791 128.751 5 126.149 5 123.436C5 120.722 6.07791 118.12 7.99659 116.201C9.91528 114.283 12.5176 113.205 15.231 113.205C17.9444 113.205 20.5467 114.283 22.4654 116.201C24.3841 118.12 25.462 120.722 25.462 123.436Z" stroke="white" stroke-width="10" stroke-linecap="round" stroke-linejoin="round"/>
</svg>
