<svg width="156" height="126" viewBox="0 0 156 126" fill="none" xmlns="http://www.w3.org/2000/svg">
<path d="M142.487 3V123M142.487 3H99.7462V21.125M142.487 3L153 7.84472V120.447L142.487 123M142.487 123L99.7462 123M99.7462 123V21.125M99.7462 123L91.3199 123M99.7462 21.125H59.2792M52.7254 21.125V123M52.7254 21.125V3M52.7254 21.125H59.2792M52.7254 123H3V3H18.1881H52.7254M52.7254 123L62.5561 123M52.7254 3L59.2792 7.84472V21.125M70.6923 123V101.043H83.5128V123M70.6923 123H83.5128M70.6923 123H62.5561M83.5128 123H91.3199M62.5561 123V79.5957M91.3199 123L91.5358 79.5957M62.5561 54.0638L62.5415 32.971H91.7214L91.6428 54.0638M62.5561 54.0638H91.6428M62.5561 54.0638V79.5957M91.6428 54.0638L91.5358 79.5957M62.5561 79.5957H91.5358M44.4863 13.4348V109.957H26.5463V13.4348H44.4863Z" stroke="white" stroke-width="5" stroke-linejoin="round"/>
</svg>
