<svg width="1097" height="2947" viewBox="0 0 1097 2947" fill="none" xmlns="http://www.w3.org/2000/svg">
<path d="M547.499 4V79C547.499 89 547.499 102.5 522.499 104.5C492.899 104.5 182.5 104.5 30.9995 104.5C25.4995 103.833 14.4995 107.9 14.4995 129.5C14.4995 151.1 8.9987 868.833 8.9987 988C6.83203 1003.5 11.0987 1034.5 45.4987 1034.5C76.3878 1034.5 896.395 1034.5 1063.46 1034.5C1080.03 1034.5 1093 1047.93 1093 1064.5V1149.5L1093 1870.5C1093 1887.07 1079.57 1900.5 1063 1900.5H33.5C16.9314 1900.5 3.5 1913.93 3.5 1930.5V2943.5" stroke="white" stroke-width="7" stroke-linecap="round"/>
</svg>
